<?xml version="1.0" encoding="utf-8"?>
<!-- Generator: Adobe Illustrator 19.1.0, SVG Export Plug-In . SVG Version: 6.00 Build 0)  -->
<svg version="1.1" id="Object" xmlns="http://www.w3.org/2000/svg" xmlns:xlink="http://www.w3.org/1999/xlink" x="0px" y="0px"
	 viewBox="0 0 464.9 473.9" style="enable-background:new 0 0 464.9 473.9;" xml:space="preserve">
<style type="text/css">
	.st0{fill:#616E7D;}
	.st1{fill:#FFFFFF;}
</style>
<g>
	<path class="st0" d="M107.9,14.3c-0.1,0.1-0.1,0.2-0.2,0.2c0,0,0,0.1,0,0.1L107.9,14.3z"/>
	<path d="M387.5,435.2c0,21.3,17.4,38.7,38.7,38.7c21.3,0,38.7-17.4,38.7-38.7c0-16.1-9.8-30.3-24.6-36v-32.8
		c0-36.4-30.2-66-67.3-66h-36.9c-17.5,0-34.1,6.6-46.7,18.5c-10.9,10.3-17.9,23.8-20,38.4l-0.6,4.6c0,21.3-17.9,38.7-40,38.7h-36.9
		c-22,0-40-17.3-40-38.7v-68.8c7-3.8,12.1-10.3,14.3-17.9c64.6-12,111.3-66.1,111.3-129.6V97.8c0-39.7-27.6-74-67.4-83.9
		C205.6,5.4,196.7,0,187,0c-7.4,0-14.5,3.2-19.5,8.7l1.8,4.1c0.4-0.5,0.7-1,1.1-1.5c10.1,9,16.5,22.1,16.5,36.7l0,0.6
		c-0.6,0-1.2-0.1-1.8-0.2l1.9,4.2c8.5,0,16.4-4.1,21.3-10.9c24.8,8.3,41.9,30.9,41.9,56v47.9c0,49.3-36.8,92.4-87.4,102.6l-0.8,0.2
		c0.8,1.1,1.4,2.3,1.6,3.7l0.1,1.5v13.2c0,1.7-0.2,3.4-0.5,5.1c-7.5,1.3-15.3,2-23.2,2h-2.5c-8.9,0-17.6-0.9-26-2.5
		c-0.3-1.5-0.4-3-0.4-4.6v-13.2c0-0.7,0.1-1.4,0.2-2.1c0.3-1.4,1-2.6,1.9-3.7l-1-0.2c-50-11.2-84.8-53.2-84.8-102V97.8
		c0-24.8,16.1-46.8,40.5-55.5c4.9,6.5,12.7,10.4,20.9,10.4l1.8-4.2c-0.6,0.1-1.2,0.2-1.8,0.2l0-0.6c0-14.6,6.4-27.7,16.5-36.7
		c0.4,0.4,0.7,1,1.1,1.5l1.8-4.1C103.2,3.2,96.1,0,88.7,0c-10,0-19,5.6-23.5,14.4C26.7,25,0,59,0,97.8v47.9
		c0,62,45.4,115.9,108.2,129c2.3,8.6,8.4,15.7,16.4,19.4v67.9c0,36.4,30.2,66,67.3,66h36.9c17.5,0,34.1-6.6,46.7-18.5
		c10.2-9.6,16.9-21.9,19.5-35.3l1.2-8.4c0.4-21,18.3-38,39.9-38H373c22,0,40,17.3,40,38.7v32.5C397.8,404.4,387.5,418.9,387.5,435.2
		z M426.2,413.3c12.1,0,22,9.8,22,22c0,12.1-9.8,22-22,22c-12.1,0-22-9.8-22-22C404.2,423.1,414.1,413.3,426.2,413.3z"/>
	<path class="st0" d="M168.1,14.6c0,0-0.1-0.2-0.2-0.2l0.2,0.4C168,14.7,168,14.6,168.1,14.6z"/>
	<path class="st1" d="M106.4,12.8c-0.4-0.5-0.7-1-1.1-1.5c-10.1,9-16.5,22.1-16.5,36.7l0,0.6c0.6,0,1.2-0.1,1.8-0.2
		c11.5-1,20.5-10.4,20.5-22.1c0-4.3-1.2-8.2-3.3-11.6c0,0,0-0.1-0.1-0.1C107.3,14,106.8,13.4,106.4,12.8z"/>
	<path class="st1" d="M169.4,12.8c-0.4,0.6-0.9,1.1-1.3,1.7c0,0,0,0.1,0,0.1c-2.1,3.4-3.3,7.4-3.3,11.6c0,11.7,9,21.2,20.5,22.1
		c0.6,0.1,1.2,0.2,1.8,0.2l0-0.6c0-14.6-6.4-27.7-16.5-36.7C170.1,11.8,169.7,12.3,169.4,12.8z"/>
	<path class="st1" d="M154.4,244.3h-34c-3,0-5.5,1.4-7.2,3.6c-0.8,1.1-1.6,2.3-1.9,3.7c-0.2,0.7-0.2,1.3-0.2,2.1v13.2
		c0,1.6,0.1,3.1,0.4,4.6c8.4,1.6,17.1,2.5,26,2.5h2.5c7.9,0,15.7-0.7,23.2-2c0.3-1.6,0.5-3.3,0.5-5.1v-13.2l-0.1-1.5
		c-0.2-1.4-0.8-2.6-1.6-3.7C160.3,245.9,157.6,244.3,154.4,244.3z"/>
	<path class="st1" d="M404.2,435.2c0,12.1,9.8,22,22,22c12.1,0,22-9.8,22-22c0-12.1-9.8-22-22-22
		C414.1,413.3,404.2,423.1,404.2,435.2z M443.9,435.2c0,9.8-7.9,17.7-17.7,17.7c-9.8,0-17.7-7.9-17.7-17.7s7.9-17.7,17.7-17.7
		C436,417.5,443.9,425.4,443.9,435.2z"/>
	<path class="st1" d="M408.5,435.2c0,9.8,7.9,17.7,17.7,17.7c9.8,0,17.7-7.9,17.7-17.7s-7.9-17.7-17.7-17.7
		C416.4,417.5,408.5,425.4,408.5,435.2z"/>
</g>
</svg>
