<?xml version="1.0" encoding="utf-8"?>
<!-- Generator: Adobe Illustrator 19.1.0, SVG Export Plug-In . SVG Version: 6.00 Build 0)  -->
<svg version="1.1" id="Object" xmlns="http://www.w3.org/2000/svg" xmlns:xlink="http://www.w3.org/1999/xlink" x="0px" y="0px"
	 viewBox="0 0 187.6 227.1" style="enable-background:new 0 0 187.6 227.1;" xml:space="preserve">
<style type="text/css">
	.st0{fill:none;stroke:#FFFFFF;stroke-width:8;stroke-miterlimit:10;}
</style>
<g>
	<g>
		<path d="M40.9,165c0,0-17.9,28.6-40.4,0c-0.7-0.9-0.7-2.4,0.1-3.3C25.4,135.1,40.9,165,40.9,165z"/>
		<path d="M49.4,155.8c0.5-0.8-0.1-1.6-1.2-1.5c-6.9,0.8-13.7,5.4-14.6,10.5c0.4,4.7,6.6,10.1,13.1,11.6c1.2,0.3,1.9-0.6,1.3-1.5
			C45.5,170.7,44.4,163.6,49.4,155.8z"/>
		<path d="M27.1,157.3c0,0,1.9-6.3,4.8-9.8c0.5-0.6-0.1-1.5-0.9-1.6c-3-0.2-9.4,0.4-16.2,7.8L27.1,157.3z"/>
		<path d="M27.2,173.3c0,0,0.5,4.6,2.1,7.4c0.3,0.5-0.3,1-0.8,0.9c-2.2-0.3-6.7-1.7-10.5-7.6L27.2,173.3z"/>
	</g>
	<circle cx="8.8" cy="162" r="1.7"/>
</g>
<g>
	<g>
		<path d="M171.5,44.2c0,0-23.3,37.1-52.5,0c-1-1.2-0.9-3.2,0.2-4.3C151.4,5.3,171.5,44.2,171.5,44.2z"/>
		<path d="M182.5,32.1c0.7-1-0.1-2.1-1.6-2c-9,1-17.8,6.9-18.9,13.6c0.5,6.1,8.5,13.2,17.1,15.1c1.5,0.3,2.4-0.8,1.8-1.9
			C177.4,51.5,176,42.3,182.5,32.1z"/>
		<path d="M153.5,34.1c0,0,2.5-8.2,6.2-12.8c0.7-0.8-0.1-2-1.1-2.1c-3.9-0.2-12.3,0.6-21.1,10.2L153.5,34.1z"/>
		<path d="M153.7,54.9c0,0,0.6,5.9,2.7,9.6c0.4,0.6-0.3,1.3-1.1,1.2c-2.8-0.4-8.7-2.2-13.6-9.9L153.7,54.9z"/>
	</g>
	<circle cx="129.8" cy="40.2" r="2.2"/>
</g>
<g>
	<g>
		<path d="M182.2,178.6c0,0-11.2,17.8-25.2,0c-0.5-0.6-0.4-1.5,0.1-2.1C172.5,159.9,182.2,178.6,182.2,178.6z"/>
		<path d="M187.5,172.8c0.3-0.5-0.1-1-0.8-0.9c-4.3,0.5-8.5,3.3-9.1,6.5c0.3,3,4.1,6.3,8.2,7.2c0.7,0.2,1.2-0.4,0.8-0.9
			C185,182.1,184.3,177.7,187.5,172.8z"/>
		<path d="M173.6,173.7c0,0,1.2-4,3-6.1c0.3-0.4,0-1-0.5-1c-1.9-0.1-5.9,0.3-10.1,4.9L173.6,173.7z"/>
		<path d="M173.7,183.7c0,0,0.3,2.9,1.3,4.6c0.2,0.3-0.2,0.6-0.5,0.6c-1.3-0.2-4.2-1-6.5-4.8L173.7,183.7z"/>
	</g>
	<circle cx="162.1" cy="176.7" r="1.1"/>
</g>
<g>
	<g>
		<path d="M44.1,68.9c0,0-11.6,18.5-26.2,0c-0.5-0.6-0.4-1.6,0.1-2.2C34,49.5,44.1,68.9,44.1,68.9z"/>
		<path d="M49.6,62.9c0.3-0.5-0.1-1.1-0.8-1c-4.5,0.5-8.9,3.5-9.4,6.8c0.3,3.1,4.3,6.6,8.5,7.5c0.7,0.2,1.2-0.4,0.9-0.9
			C47.1,72.6,46.3,68,49.6,62.9z"/>
		<path d="M35.1,63.9c0,0,1.2-4.1,3.1-6.4c0.3-0.4,0-1-0.6-1c-1.9-0.1-6.1,0.3-10.5,5.1L35.1,63.9z"/>
		<path d="M35.2,74.3c0,0,0.3,3,1.3,4.8c0.2,0.3-0.2,0.7-0.6,0.6c-1.4-0.2-4.3-1.1-6.8-5L35.2,74.3z"/>
	</g>
	<circle cx="23.2" cy="66.9" r="1.1"/>
</g>
<g>
	<g>
		<path d="M148,120.5c0,0-54.8,87.4-123.7,0.1c-2.3-2.9-2.1-7.5,0.4-10.2C100.5,28.9,148,120.5,148,120.5z"/>
		<path d="M173.9,92.2c1.6-2.5-0.3-5-3.7-4.7c-21.2,2.3-41.9,16.4-44.6,32.1c1.3,14.5,20.1,31.1,40.2,35.5c3.5,0.8,5.8-1.8,4.1-4.4
			C162,137.8,158.5,116.2,173.9,92.2z"/>
		<path d="M105.6,96.8c0,0,5.8-19.4,14.7-30.1c1.6-1.9-0.2-4.7-2.7-4.8c-9.1-0.6-28.9,1.4-49.7,24L105.6,96.8z"/>
		<path d="M106.1,145.7c0,0,1.4,14,6.3,22.5c0.8,1.5-0.8,3.1-2.6,2.9c-6.6-0.9-20.5-5.1-32.1-23.4L106.1,145.7z"/>
	</g>
	<circle cx="49.6" cy="111.2" r="5.3"/>
</g>
<line class="st0" x1="86" y1="0" x2="86" y2="107"/>
<circle class="st0" cx="86.3" cy="118" r="12.3"/>
<path class="st0" d="M120.7,183.3L139,165v12v19.5c0,14.6-11.9,26.6-26.5,26.6S86,211.3,86,196.7V196v-66"/>
</svg>
