<?xml version="1.0" encoding="utf-8"?>
<!-- Generator: Adobe Illustrator 19.1.0, SVG Export Plug-In . SVG Version: 6.00 Build 0)  -->
<svg version="1.1" id="Calque_1" xmlns="http://www.w3.org/2000/svg" xmlns:xlink="http://www.w3.org/1999/xlink" x="0px" y="0px"
	 viewBox="0 0 160.9 168.7" style="enable-background:new 0 0 160.9 168.7;" xml:space="preserve">
<style type="text/css">
	.st0{fill:#FDFFFF;}
	.st1{fill:#1D1D1B;}
	.st2{fill:#FFFFFF;}
</style>
<path class="st0" d="M62.7,42.2c2,2.1,7.2-0.1,11.7-4.8c4.5-4.7,6.5-10.2,4.5-12.3c-2-2.1-7.2,0.1-11.7,4.8
	C62.8,34.6,60.7,40.1,62.7,42.2z"/>
<path class="st0" d="M44.9,35.6c2,2.1,7.2-0.1,11.7-4.8c4.5-4.7,6.5-10.2,4.5-12.2c-2-2.1-7.2,0.1-11.7,4.8
	C44.9,28,42.9,33.5,44.9,35.6z"/>
<path class="st0" d="M120.4,102.8c-2-2.1,0.1-7.5,4.5-12.2c4.5-4.7,9.7-6.8,11.7-4.8c2,2.1-0.1,7.6-4.5,12.3
	C127.6,102.7,122.4,104.9,120.4,102.8z"/>
<path class="st0" d="M126.7,121.6c-2-2.1,0.1-7.5,4.5-12.2c4.5-4.7,9.7-6.8,11.7-4.8c2,2.1-0.1,7.6-4.5,12.3
	C133.9,121.5,128.7,123.6,126.7,121.6z"/>
<path class="st1" d="M78,71.6c-2.1-8.5-25.6-23-33.3-28.4C30.3,33,15.6,29.1,18,24.6c3.7-7,38.4,3,45.9,6.8
	c7.5,3.8,38.3,14.2,42.1,14.2C109.8,45.6,78,71.6,78,71.6z"/>
<path class="st1" d="M37.6,117.1c0,0-20.5-3.5-27.3-2c-6.4,1.4-15.5,6.6-6.7,9c9.4,2.5,17.9,6.2,23.3,11.2"/>
<path class="st1" d="M92.4,86.7c8.1,2.2,21.9,26.9,27,35c9.7,15.2,13.4,30.6,17.7,28.1c6.7-3.9-2.9-40.4-6.5-48.2
	c-3.6-7.8-13.5-40.2-13.5-44.2C117.2,53.4,92.4,86.7,92.4,86.7z"/>
<path class="st1" d="M49.2,129.2c0,0,3.3,21.5,1.9,28.7c-1.4,6.7-6.3,16.3-8.5,7c-2.4-9.8-5.9-18.9-10.6-24.5"/>
<path class="st2" d="M158.3,2.3C158.3,2.3,158.3,2.3,158.3,2.3c-3.4-3.5-12-5.1-28.9,10.7C116.6,25,100.7,40.8,84,58.4
	c-37.4,39.3-63.7,76-60.5,84.2c0.1,0.3,0.3,0.6,0.5,0.9c5.8,6.1,42-22.2,81-63.1C121.6,63,137.3,46.7,148.5,33
	C164.5,13.5,161.6,5.8,158.3,2.3z"/>
<path d="M146.4,14.9c3.2,3.3,4.6,7.2,5.6,6.3c0.9-1,0.9-6.4-2.3-9.7c-3.2-3.3-8.3-3.3-9.2-2.4C139.5,10,143.2,11.5,146.4,14.9z"/>
</svg>
