<?xml version="1.0" encoding="utf-8"?>
<!-- Generator: Adobe Illustrator 19.1.0, SVG Export Plug-In . SVG Version: 6.00 Build 0)  -->
<svg version="1.1" id="Object" xmlns="http://www.w3.org/2000/svg" xmlns:xlink="http://www.w3.org/1999/xlink" x="0px" y="0px"
	 viewBox="0 0 178.4 131.6" style="enable-background:new 0 0 178.4 131.6;" xml:space="preserve">
<style type="text/css">
	.st0{fill:#FFFFFF;}
</style>
<path class="st0" d="M160.8,83.4h14.8c0.7,0,1.4-0.3,2-0.8c0.5-0.5,0.8-1.2,0.8-2V42.7c0-0.7-0.3-1.4-0.8-2c-0.5-0.5-1.2-0.8-2-0.8
	h-13.4c-1.8-3.7-4-7.2-6.7-10.5c0.5-1.2,6.7-15.6,11.2-24.7c1.9-1.1-20.6-12.6-39,4.5c-10-4.1-21.4-6.5-33.5-6.5
	c-40.1,0-72.7,25.7-72.7,57.4c0,0.9,0,1.7,0.1,2.6c-0.4,1.4-1.3,2.6-2.6,3.7c-0.6,0.4-1.2,0.8-2,1.1c0.3-0.6,0.5-1.3,0.5-2
	c0-1.5-0.7-2.8-1.7-3.7c-1-0.9-2.4-1.5-4-1.5c-1.5,0-2.9,0.6-4,1.5c-1,0.9-1.7,2.2-1.7,3.7c0,0.7,0.2,1.4,0.5,2
	c-0.7-0.3-1.4-0.7-2-1.1C3,65.1,2,63.3,2,61.4H0c0,2.7,1.4,5,3.6,6.7c2.2,1.6,5.1,2.6,8.4,2.6c3.2,0,6.2-1,8.4-2.6
	c0.7-0.5,1.2-1.1,1.7-1.7c1.6,11.7,7.5,22.3,16.6,30.8l-2.8,28.2c-0.1,1.5,0.8,2.8,2.2,3.2l10,2.9c1.4,0.4,2.9-0.2,3.6-1.5l9.6-18.5
	c9.9,4,21.2,6.3,33.1,6.3c11.2,0,21.8-2,31.3-5.6l9.2,17.8c0.7,1.3,2.2,1.9,3.6,1.5l10-2.9c1.4-0.4,2.3-1.8,2.2-3.2L148,99
	C153.3,94.4,157.6,89.2,160.8,83.4z M14.6,67.8c-0.7,0.6-1.6,1-2.6,1c-1,0-2-0.4-2.6-1c-0.7-0.6-1-1.4-1-2.2c0-0.8,0.4-1.6,1-2.2
	c0.7-0.6,1.6-1,2.6-1c1,0,2,0.4,2.6,1c0.7,0.6,1,1.4,1,2.2C15.6,66.4,15.3,67.2,14.6,67.8z M127.2,19.9l-3.7,8.6
	c-0.1,0.3-0.4,0.6-0.7,0.7c-0.3,0.1-0.7,0.1-1,0l-4.3-1.8v0l0,0l-0.1,0l-0.3-0.1c-0.3-0.1-0.7-0.3-1.3-0.5c-1.1-0.4-2.8-1-4.9-1.5
	c-4.1-1.1-9.9-2.2-15.9-2.2c-5.9,0-11.9,1-16.5,2.1c-4.6,1.1-7.7,2.2-7.9,2.3l0,0l-4.4,1.6c-0.7,0.2-1.4-0.1-1.6-0.8l-3.2-8.7
	c-0.2-0.7,0.1-1.4,0.8-1.6l4.4-1.6c0.2-0.1,3.6-1.3,8.8-2.6c5.2-1.3,12.3-2.6,19.7-2.6c7.4,0,13.9,1.3,18.8,2.5
	c4.8,1.3,8,2.6,8.3,2.7l0.1,0l4.3,1.8c0.3,0.1,0.6,0.4,0.7,0.7C127.3,19.3,127.3,19.6,127.2,19.9z"/>
<path d="M127.2,19c-0.1-0.3-0.4-0.6-0.7-0.7l-4.3-1.8l-0.1,0c-0.3-0.1-3.5-1.4-8.3-2.7c-4.8-1.3-11.4-2.5-18.8-2.5
	c-7.5,0-14.5,1.3-19.7,2.6c-5.2,1.3-8.7,2.5-8.8,2.6l-4.4,1.6c-0.7,0.2-1,1-0.8,1.6l3.2,8.7c0.2,0.7,1,1,1.6,0.8l4.4-1.6l0,0
	c0.2-0.1,3.4-1.2,7.9-2.3c4.6-1.1,10.6-2.1,16.5-2.1c6.1,0,11.8,1.1,15.9,2.2c2.1,0.6,3.7,1.1,4.9,1.5c0.6,0.2,1,0.4,1.3,0.5
	l0.3,0.1l0.1,0l0,0v0l4.3,1.8c0.3,0.1,0.7,0.1,1,0c0.3-0.1,0.6-0.4,0.7-0.7l3.7-8.6C127.3,19.6,127.3,19.3,127.2,19z"/>
</svg>
