<?xml version="1.0" encoding="utf-8"?>
<!-- Generator: Adobe Illustrator 19.1.0, SVG Export Plug-In . SVG Version: 6.00 Build 0)  -->
<svg version="1.1" id="Object" xmlns="http://www.w3.org/2000/svg" xmlns:xlink="http://www.w3.org/1999/xlink" x="0px" y="0px"
	 viewBox="0 0 192.1 187.4" style="enable-background:new 0 0 192.1 187.4;" xml:space="preserve">
<style type="text/css">
	.st0{fill:#FFFFFF;}
</style>
<path d="M192.1,125.5l0.1-0.2c-13.9,0-22.4-8.5-32.6-15.6c-7.4-5.2-15.7-9.7-27.7-9.7c-5.4,0-9.9,0-13.8,0.2H89.8
	c-4.1,0-7.5,3.3-7.5,7.5s3.3,7.5,7.5,7.5h16h10.5c5.4,0.9,9.4,5.5,9.4,11.1c0,4.2-2.4,7.9-5.8,9.8c-0.8,0.2-4.9,1.3-10.3,2.7
	c-3.5,0.8-6.8,1.7-9.9,2.6l-0.7,0.2c-11.6,3.1-24.2,6.4-26.4,6.9c-1.5,0.1-2.9,0-4.1-0.3l-41.7-27.1l-7.6-5.5v0
	c-0.4-0.2-0.7-0.5-1.1-0.6c-0.6-0.3-1.1-0.5-1.7-0.7c-0.5-0.1-1-0.2-1.5-0.3c-0.5-0.1-1.1-0.1-1.6-0.1c-0.7,0-1.5,0.1-2.2,0.2
	c-6.2,0.5-11,5.6-11,12c0,3.3,1.4,6.3,3.6,8.5l0,0l0.1,0c0.9,0.8,1.9,1.6,3,2.2l2.9,2.1l65.4,47.4v0c0.3,0.1,0.5,0.2,0.8,0.3
	c1.5,0.5,3,0.8,4.7,0.8c1,0,1.9-0.1,2.8-0.3l0.3-0.1c22.2-5.6,68-17.3,89.4-22.6c0.5-0.2,1-0.4,1.6-0.6c5.5-1.4,12.9-3,17.6-3v-3.1
	l0.1,0l-0.1-4.3v-27.1V125.5z"/>
<path d="M59.3,76.9c-0.6-0.6-1.2-1.3-1.7-1.9l-25.4,25.4l3.9,3.9l25.4-25.4c-0.3-0.3-0.7-0.5-1-0.8c-0.4-0.3-0.7-0.6-1.1-1
	L59.3,76.9z"/>
<path class="st0" d="M60.6,10.3c-0.4-0.4-0.7-0.7-1.1-1l-0.1,0.1c-18,18-18.6,46.8-1.8,65.5c0.6,0.6,1.1,1.3,1.7,1.9l0.1,0.1
	c0.3,0.4,0.7,0.7,1.1,1c0.3,0.3,0.7,0.5,1,0.8C80.2,95.6,109,95,127,77l0.1-0.1l-0.1-0.1c-16.6-16.6-42.3-18.4-60.9-5.5
	C78.9,52.6,77.1,26.9,60.6,10.3z"/>
<path class="st0" d="M77.6,48.8c-0.6,3.5-1,7.1-1,10.8l0,0.2l0.2,0c0.6,0,1.2-0.1,1.8-0.1c32.1-1,57.8-27.2,57.8-59.6l0-0.2l-0.2,0
	C106.9,0,82.7,21.1,77.6,48.8z"/>
</svg>
