<?xml version="1.0" encoding="utf-8"?>
<!-- Generator: Adobe Illustrator 19.1.0, SVG Export Plug-In . SVG Version: 6.00 Build 0)  -->
<svg version="1.1" id="Calque_1" xmlns="http://www.w3.org/2000/svg" xmlns:xlink="http://www.w3.org/1999/xlink" x="0px" y="0px"
	 viewBox="0 0 223.9 203.8" style="enable-background:new 0 0 223.9 203.8;" xml:space="preserve">
<style type="text/css">
	.st0{fill:#FFFFFF;}
</style>
<g>
	<path class="st0" d="M4.5,106.2l0.1,0.4l20.3,0c0.3,0,0.6,0,0.9,0c9.8,0,17.6-8.3,17-18.2c-0.5-8.5-7.5-15.4-15.9-15.9
		c-9.9-0.6-18.1,7.3-18.1,17l0,0.3h0l0,9.1C8.8,102.3,7,105.1,4.5,106.2z"/>
	<path class="st0" d="M35.7,108.1l-19.7,0c-8.8,0-16,7.2-16,16l0,7.8l51.8-0.1l0-7.8C51.7,115.3,44.6,108.1,35.7,108.1z"/>
</g>
<g>
	<path d="M66,89.1c0,9.5,7.7,17.1,17.2,17.1c9.5,0,17.2-7.7,17.1-17.2c0-9.5-7.7-17.2-17.2-17.1C73.6,71.9,65.9,79.6,66,89.1z"/>
	<path d="M93.1,107.8l-19.9,0c-8.9,0-16.1,7.3-16.1,16.2l0,7.8l52.1-0.1l0-7.8C109.2,115,102,107.8,93.1,107.8z"/>
</g>
<g>
	<path class="st0" d="M119.1,106.2l0.1,0.4l20.3,0c0.3,0,0.6,0,0.9,0c9.8,0,17.6-8.3,17-18.2c-0.5-8.5-7.5-15.4-15.9-15.9
		c-9.9-0.6-18.1,7.3-18.1,17l0,0.3h0l0,9.1C123.4,102.3,121.6,105.1,119.1,106.2z"/>
	<path class="st0" d="M150.3,108.1l-19.7,0c-8.8,0-16,7.2-16,16l0,7.8l51.8-0.1l0-7.8C166.4,115.3,159.2,108.1,150.3,108.1z"/>
</g>
<g>
	<path d="M180.6,89.1c0,9.5,7.7,17.1,17.2,17.1c9.5,0,17.2-7.7,17.1-17.2c0-9.5-7.7-17.2-17.2-17.1
		C188.2,71.9,180.5,79.6,180.6,89.1z"/>
	<path d="M207.7,107.8l-19.9,0c-8.9,0-16.1,7.3-16.1,16.2l0,7.8l52.1-0.1l0-7.8C223.8,115,216.6,107.8,207.7,107.8z"/>
</g>
<g>
	<path class="st0" d="M61.8,177.9l0.1,0.4l20.3,0c0.3,0,0.6,0,0.9,0c9.8,0,17.6-8.3,17-18.2c-0.5-8.5-7.5-15.4-15.9-15.9
		c-9.9-0.6-18.1,7.3-18.1,17l0,0.3h0l0,9.1C66.1,174.1,64.3,176.9,61.8,177.9z"/>
	<path class="st0" d="M93,179.9l-19.7,0c-8.8,0-16,7.2-16,16l0,7.8l51.8-0.1l0-7.8C109,187.1,101.9,179.9,93,179.9z"/>
</g>
<g>
	<path d="M123.3,160.9c0,9.5,7.7,17.1,17.2,17.1c9.5,0,17.2-7.7,17.1-17.2c0-9.5-7.7-17.2-17.2-17.1
		C130.9,143.7,123.2,151.4,123.3,160.9z"/>
	<path d="M150.4,179.6l-19.9,0c-8.9,0-16.1,7.3-16.1,16.2l0,7.8l52.1-0.1l0-7.8C166.5,186.8,159.3,179.6,150.4,179.6z"/>
</g>
<g>
	<path class="st0" d="M61.8,34.2l0.1,0.4l20.3,0c0.3,0,0.6,0,0.9,0c9.8,0,17.6-8.3,17-18.2C99.6,8,92.7,1.1,84.2,0.6
		c-9.9-0.6-18.1,7.3-18.1,17l0,0.3h0l0,9.1C66.1,30.4,64.3,33.2,61.8,34.2z"/>
	<path class="st0" d="M93,36.2l-19.7,0c-8.8,0-16,7.2-16,16l0,7.8l51.8-0.1l0-7.8C109,43.4,101.9,36.2,93,36.2z"/>
</g>
<g>
	<path d="M123.3,17.2c0,9.5,7.7,17.1,17.2,17.1c9.5,0,17.2-7.7,17.1-17.2c0-9.5-7.7-17.2-17.2-17.1C130.9,0,123.2,7.7,123.3,17.2z"
		/>
	<path d="M150.4,35.9l-19.9,0c-8.9,0-16.1,7.3-16.1,16.2l0,7.8l52.1-0.1l0-7.8C166.5,43.1,159.3,35.9,150.4,35.9z"/>
</g>
</svg>
