<?xml version="1.0" encoding="utf-8"?>
<!-- Generator: Adobe Illustrator 19.1.0, SVG Export Plug-In . SVG Version: 6.00 Build 0)  -->
<svg version="1.1" id="Calque_1" xmlns="http://www.w3.org/2000/svg" xmlns:xlink="http://www.w3.org/1999/xlink" x="0px" y="0px"
	 viewBox="0 0 271.8 137.4" style="enable-background:new 0 0 271.8 137.4;" xml:space="preserve">
<style type="text/css">
	.st0{fill-rule:evenodd;clip-rule:evenodd;fill:#1D1D1B;}
	.st1{fill-rule:evenodd;clip-rule:evenodd;fill:#FFFFFF;}
</style>
<path class="st0" d="M220.9,56.1l2.1,48.2c-45.5,46.3-127.4,41.4-165.2,1.5l-0.2-47.2l78.3,32.8L220.9,56.1L220.9,56.1z"/>
<polygon class="st0" points="0,47.4 135.9,0 271.8,47.4 135.9,94.8 "/>
<path class="st1" d="M137.6,34.5L46.1,59.2c-0.8,0.2-1.2,0.6-1.2,1.7l-0.4,40.7c2.9,1,5,4.2,5,7.7c0,4.6-3.3,8.1-7.7,8.1
	c-4.2,0-7.7-3.5-7.7-8.1c0-3.3,1.9-6.2,4.6-7.5l0.6-44.5c-0.2-1.5,0.4-2.5,2.1-3.1L134,29.5C137.3,28.5,140.7,32.2,137.6,34.5
	L137.6,34.5L137.6,34.5z"/>
</svg>
