<?xml version="1.0" encoding="utf-8"?>
<!-- Generator: Adobe Illustrator 19.1.0, SVG Export Plug-In . SVG Version: 6.00 Build 0)  -->
<svg version="1.1" id="Calque_1" xmlns="http://www.w3.org/2000/svg" xmlns:xlink="http://www.w3.org/1999/xlink" x="0px" y="0px"
	 viewBox="0 0 266.7 230.5" style="enable-background:new 0 0 266.7 230.5;" xml:space="preserve">
<style type="text/css">
	.st0{fill:#1D1D1B;}
	.st1{fill:#FFFFFF;}
	.st2{fill:none;}
</style>
<path class="st0" d="M249.7,135v-7.1h-3.4c-3.8-8.5-7.2-17.4-8.7-25.4h0.6c0.8,0,1.5-2.5,1.5-2.5c0-0.7-0.7-1.3-1.5-1.3H237
	c-1.5-9.4-7.2-47.1-7-75.6h0.2c0.8,0,1.5-5.2,1.5-5.2c0-0.6-0.4-1-1-1.2c0.1-0.2,0.2-0.4,0.2-0.6v-0.9c0-0.7-0.7-1.3-1.5-1.3h-0.5
	c0.1-0.1,0.1-0.3,0.1-0.4c0-0.5-0.5-0.9-1-0.9h-0.4V6.8c0-0.2-0.2-0.4-0.4-0.5V0H227h-0.3v6.3c-0.2,0.1-0.4,0.3-0.4,0.5v5.9h-0.4
	c-0.6,0-1,0.4-1,0.9c0,0.2,0,0.3,0.1,0.4h-0.5c-0.8,0-1.5,0.6-1.5,1.3v0.9c0,0.2,0.1,0.4,0.2,0.6c-0.6,0.2-1,0.7-1,1.2
	c0,0,0.7,5.2,1.5,5.2h0.2c0.2,28.4-5.5,66.2-7,75.6h-1.1c-0.8,0-1.5,0.6-1.5,1.3c0,0,0.7,2.5,1.5,2.5h0.5c-1.5,8-4.9,16.9-8.7,25.4
	H204v7.3c-7.3,14.7-14.9,26.5-14.9,26.5h15.1h0.7c0.3-11.1,10-20,21.9-20c0,0,0,0,0,0c11.9,0,21.7,8.9,21.9,20h1.1h14.8
	C264.7,161.8,257,149.9,249.7,135z M227,128.1h-8.5c0,0,3.7-14,3.9-17.6h4.5h4.4c0,0,2.6,14,4,17.6H227z"/>
<circle class="st1" cx="77.6" cy="183.8" r="4"/>
<g>
	<rect x="77.3" y="135.5" class="st1" width="1" height="47"/>
</g>
<g>
	<path class="st1" d="M53.6,41.1c-0.4-0.4-0.6-0.9-0.6-1.5V26.3h7.7c1.4,0,2.5,0.3,3.4,1c0.8,0.7,1.3,1.5,1.3,2.7V31
		c0,0.5-0.1,0.9-0.4,1.4c-0.2,0.4-0.6,0.8-1,1.1v0c0.7,0.2,1.3,0.7,1.7,1.2c0.4,0.6,0.6,1.2,0.6,1.9v1.1c0,1.2-0.4,2.2-1.3,2.9
		s-2,1.1-3.5,1.1h-6.3C54.5,41.7,54,41.5,53.6,41.1z M60.7,32.7c0.5,0,0.9-0.2,1.1-0.5c0.3-0.3,0.4-0.7,0.4-1.2v-0.7
		c0-0.4-0.2-0.7-0.5-1c-0.3-0.2-0.7-0.4-1.2-0.4h-4.5v3.7H60.7z M61.2,39.1c0.6,0,1.1-0.1,1.5-0.4c0.4-0.3,0.5-0.6,0.5-1.1v-1
		c0-0.4-0.2-0.8-0.5-1c-0.3-0.3-0.7-0.4-1.2-0.4h-5.5v3.9H61.2z"/>
	<path class="st1" d="M69.2,30.7H72v1.4c0.3-0.4,0.7-0.8,1.2-1c0.5-0.3,1.1-0.4,1.6-0.4h1.5v2.6h-1.5c-0.8,0-1.4,0.2-1.9,0.7
		c-0.5,0.5-0.7,1.1-0.7,1.8v5.9h-3V30.7z"/>
	<path class="st1" d="M80.2,41.4c-0.7-0.3-1.3-0.8-1.7-1.5c-0.4-0.6-0.6-1.3-0.6-2.1v-2.8c0-0.9,0.2-1.6,0.6-2.3
		c0.4-0.7,0.9-1.2,1.7-1.5c0.7-0.4,1.5-0.5,2.5-0.5h1.8c1.4,0,2.5,0.4,3.4,1.2c0.8,0.8,1.3,1.8,1.3,3.2v2.3h-8.1v0.5
		c0,0.5,0.2,0.9,0.5,1.2s0.7,0.4,1.3,0.4h1.7c0.5,0,0.9-0.1,1.2-0.3s0.5-0.5,0.5-0.9H89c0,0.7-0.2,1.4-0.6,2c-0.4,0.6-1,1-1.7,1.3
		s-1.5,0.5-2.5,0.5h-1.7C81.7,41.9,80.9,41.7,80.2,41.4z M86.1,35.1v-0.2c0-0.6-0.2-1-0.5-1.4C85.4,33.2,85,33,84.4,33h-1.8
		c-0.5,0-1,0.2-1.3,0.5c-0.3,0.4-0.5,0.9-0.5,1.5v0.1H86.1z"/>
	<path class="st1" d="M92.9,40.8c-0.8-0.7-1.2-1.6-1.2-2.8h2.9c0,0.4,0.1,0.7,0.4,1c0.3,0.2,0.6,0.4,1.1,0.4h2
		c0.9,0,1.3-0.2,1.3-0.7v-0.4c0-0.1-0.1-0.3-0.2-0.4s-0.3-0.2-0.6-0.3l-3.8-0.7c-0.9-0.1-1.6-0.5-2.1-1c-0.5-0.5-0.8-1.1-0.8-1.7
		v-0.7c0-0.9,0.4-1.7,1.2-2.2c0.8-0.5,1.8-0.8,3.2-0.8H98c1.2,0,2.2,0.3,3,1c0.8,0.7,1.1,1.5,1.1,2.6h-2.9c0-0.3-0.1-0.6-0.3-0.8
		s-0.5-0.3-0.8-0.3h-1.7c-1,0-1.4,0.2-1.4,0.7v0.4c0,0.2,0.1,0.3,0.2,0.4s0.3,0.2,0.5,0.2l4,0.7c0.8,0.1,1.5,0.5,2,0.9
		s0.8,1,0.8,1.6v0.8c0,1-0.4,1.7-1.2,2.3c-0.8,0.6-1.8,0.8-3.1,0.8h-2C94.8,41.9,93.7,41.5,92.9,40.8z"/>
	<path class="st1" d="M107.2,40.8c-0.6-0.6-0.9-1.5-0.9-2.7v-4.8h-1.9v-2.6h2v-3.3h2.9v3.3h2.9v2.6h-2.9V38c0,0.4,0.1,0.7,0.2,0.9
		c0.2,0.2,0.4,0.3,0.7,0.3h1.9v2.6h-2.1C108.8,41.7,107.8,41.4,107.2,40.8z"/>
</g>
<g>
	<path class="st1" d="M88.4,129.8l-1.8-1.8c-0.9,0.6-1.9,0.9-2.9,0.9h-2.3c-1.2,0-2.2-0.2-3.1-0.7s-1.6-1.2-2.1-2.1
		c-0.5-0.9-0.7-1.9-0.7-3.1v-4c0-1.2,0.2-2.2,0.7-3.1c0.5-0.9,1.2-1.6,2.1-2.1s1.9-0.7,3.1-0.7h2.3c1.2,0,2.2,0.2,3.1,0.7
		c0.9,0.5,1.6,1.2,2.1,2.1s0.7,1.9,0.7,3.1v3.8c0,1.1-0.3,2.2-1,3.3l1.7,1.7L88.4,129.8z M84.6,126l-2-2l1.9-2l1.9,1.9
		c0.1-0.4,0.2-0.7,0.2-1.1v-3.7c0-1-0.3-1.8-0.8-2.4s-1.2-0.9-2.1-0.9h-2.3c-0.9,0-1.5,0.3-2.1,0.9c-0.5,0.6-0.8,1.4-0.8,2.4v3.7
		c0,1,0.3,1.8,0.8,2.4c0.5,0.6,1.2,0.9,2.1,0.9h2.3C84,126.2,84.3,126.1,84.6,126z"/>
	<path class="st1" d="M93.9,127.7c-0.7-0.8-1.1-1.8-1.1-3.1v-6.9h3v6.9c0,0.5,0.1,0.9,0.4,1.2c0.2,0.3,0.6,0.5,1,0.5h1.3
		c0.5,0,0.9-0.2,1.3-0.6s0.7-0.9,0.8-1.6v-6.4h3v11h-2.8v-1.4c-0.3,0.5-0.8,0.9-1.2,1.1c-0.5,0.3-1,0.4-1.4,0.4h-1.5
		C95.6,128.9,94.6,128.5,93.9,127.7z"/>
	<path class="st1" d="M107.8,116.2c-0.3-0.3-0.5-0.8-0.5-1.3c0-0.5,0.2-1,0.5-1.3c0.3-0.3,0.8-0.5,1.4-0.5s1,0.2,1.4,0.5
		c0.3,0.3,0.5,0.8,0.5,1.3c0,0.5-0.2,1-0.5,1.3c-0.3,0.3-0.8,0.5-1.4,0.5S108.1,116.5,107.8,116.2z M107.7,117.7h3v11h-3V117.7z"/>
	<path class="st1" d="M129.9,118.6c0.7,0.7,1,1.7,1,2.8v7.2h-3v-7.2c0-0.4-0.1-0.7-0.3-1c-0.2-0.2-0.4-0.4-0.7-0.4H126
		c-0.4,0-0.8,0.2-1.1,0.5c-0.3,0.3-0.5,0.7-0.6,1.2v6.9h-3v-7.2c0-0.4-0.1-0.7-0.3-1s-0.4-0.4-0.7-0.4h-0.9c-0.4,0-0.8,0.2-1.1,0.6
		c-0.3,0.4-0.5,0.9-0.6,1.5v6.5h-3v-11h2.8v1.3c0.3-0.4,0.6-0.8,1-1.1s0.8-0.4,1.3-0.4h1.2c0.5,0,1,0.1,1.4,0.4
		c0.4,0.3,0.8,0.7,1,1.2c0.3-0.5,0.7-0.9,1.2-1.2c0.4-0.3,0.9-0.4,1.4-0.4h1.2C128.4,117.5,129.3,117.9,129.9,118.6z"/>
	<path class="st1" d="M134.5,117.7h2.8v1.2c0.3-0.4,0.7-0.7,1.2-1c0.5-0.2,0.9-0.4,1.4-0.4h1.4c0.9,0,1.7,0.2,2.3,0.5
		c0.7,0.4,1.2,0.9,1.6,1.5c0.4,0.6,0.6,1.4,0.6,2.2v2.5c0,0.9-0.2,1.7-0.6,2.4c-0.4,0.7-0.9,1.2-1.5,1.6c-0.7,0.4-1.4,0.6-2.3,0.6
		h-1.4c-0.4,0-0.8-0.1-1.3-0.3s-0.8-0.4-1.1-0.8v5.3h-3V117.7z M140.9,126.3c0.5,0,1-0.2,1.3-0.6c0.3-0.4,0.5-1,0.5-1.6v-2
		c0-0.6-0.2-1-0.5-1.4s-0.8-0.5-1.3-0.5h-1.3c-0.4,0-0.8,0.2-1.2,0.5c-0.4,0.3-0.7,0.8-0.8,1.3v2.2c0.1,0.6,0.3,1.2,0.7,1.6
		c0.4,0.4,0.8,0.6,1.4,0.6H140.9z"/>
	<path class="st1" d="M150.7,128.4c-0.7-0.3-1.3-0.8-1.7-1.5c-0.4-0.6-0.6-1.3-0.6-2.1v-2.8c0-0.9,0.2-1.6,0.6-2.3
		c0.4-0.7,0.9-1.2,1.7-1.5c0.7-0.4,1.5-0.5,2.5-0.5h1.8c1.4,0,2.5,0.4,3.4,1.2s1.3,1.8,1.3,3.2v2.3h-8.1v0.5c0,0.5,0.2,0.9,0.5,1.2
		c0.3,0.3,0.7,0.4,1.3,0.4h1.7c0.5,0,0.9-0.1,1.2-0.3s0.5-0.5,0.5-0.9h2.9c0,0.7-0.2,1.4-0.6,2c-0.4,0.6-1,1-1.7,1.3
		c-0.7,0.3-1.5,0.5-2.5,0.5h-1.7C152.2,128.9,151.4,128.7,150.7,128.4z M156.6,122.1v-0.2c0-0.6-0.2-1-0.5-1.4
		c-0.3-0.3-0.7-0.5-1.2-0.5h-1.8c-0.5,0-1,0.2-1.3,0.5s-0.5,0.9-0.5,1.5v0.1H156.6z"/>
	<path class="st1" d="M162.7,117.7h2.8v1.4c0.3-0.4,0.7-0.8,1.2-1c0.5-0.3,1.1-0.4,1.6-0.4h1.5v2.6h-1.5c-0.8,0-1.4,0.2-1.9,0.7
		s-0.7,1.1-0.7,1.8v5.9h-3V117.7z"/>
</g>
<path class="st2" d="M97.9,202.3c0.1-0.3,0.2-0.7,0.3-1C98.1,201.6,98,202,97.9,202.3L97.9,202.3z"/>
<path class="st2" d="M100.7,193.2c0,0,0.1,0,0.1,0C100.8,193.2,100.8,193.2,100.7,193.2C100.7,193.2,100.7,193.2,100.7,193.2z"/>
<g>
	<rect x="186.3" y="149.5" class="st1" width="80.4" height="1"/>
	<rect x="243.3" y="142.5" class="st1" width="23.4" height="1"/>
	<path class="st1" d="M177.4,155.6c-10.6,0-21.3-0.4-31.9,0.5c-3.3,0-6.6,0.9-9.8,2.1c-9.4,3.5-18.1,9.5-25.2,16.6
		c-3.9,3.9-7.1,8.5-9.6,13.4c-2.7,5.2-5.1,11.2-5.4,17.1c-0.1,1,1.1,1.3,1.7,0.8c8.7,0.4,17.4,0.5,26.1,0.5c0,1.3,1.1,2.7,1.9,3.5
		c1.4,1.5,3.2,2.6,5.2,2.8c3.8,0.4,7.7-3.2,8.1-6.2c0.4,0,0.8,0,1.1,0c9,0,18.1,0,27.1,0c0,1.3,1.1,2.6,1.9,3.5
		c1.4,1.5,3.2,2.6,5.2,2.8c3.8,0.4,7.7-3.2,8.1-6.2c0.2,0,0.4,0,0.6,0c2,0,4.1,0,6.1,0c0,1,1.1,2.6,1.9,3.5c1.4,1.5,3.2,2.5,5.2,2.7
		c3.8,0.4,7.7-2.4,8.1-6.3c9.3,0,18.5,0,27.8,0c0,0.4,0.1,0.8,0.3,1.2h-22.7v1h23.2c0.3,0.5,0.7,1,1.1,1.4c1.4,1.5,3.2,2.6,5.2,2.8
		c3.1,0.3,6.2-1.4,7.5-4.1h17.2c0.3,0.6,0.8,1.1,1.1,1.4c0.6,0.7,1.3,1.3,2.1,1.7v-3.2v-1v-26.7v-10.2v-12.7v-2.4
		c-18.5,0-37,0-55.4,0C200,155.6,188.7,155.6,177.4,155.6z M97.9,204.3L97.9,204.3c0.1-0.3,0.2-0.7,0.3-1
		C98.1,203.6,98,204,97.9,204.3z M100.7,195.2C100.7,195.2,100.7,195.2,100.7,195.2c0,0,0.1,0,0.1,0
		C100.8,195.2,100.8,195.2,100.7,195.2z M216.9,170.5c-0.2,1.7-0.2,3.4-0.2,5.1c0,0.6,0,1.3,0,1.9c0,0.2,0,0.4,0,0.7
		c0,0.2,0,0.5,0,0.7c0,0.6,0.1,1.2,0.3,1.8c-7.3,0-14.7,0-22,0c0.5-3.2,0.8-6.9,0.3-10.2c3.4,0,6.8,0,10.3,0
		C209.3,170.5,213.1,170.5,216.9,170.5z M231.3,180.5c-3.8,0-7.7,0-11.5,0c0.4-2.3,0.6-5,0.5-7.5c0-0.8-0.1-1.7-0.2-2.5
		c3.5,0,7,0,10.5,0c3.7,0,7.5,0.2,11.2-0.1c-0.1,1.2,0.1,2.5,0.1,3.6c0,0.8,0,1.7-0.1,2.6c0,1.5,0,3,0.4,4.3
		C238.6,180.4,234.9,180.5,231.3,180.5z M182.4,170.6c3.2,0,6.5,0,9.7,0c-0.2,1.7-0.2,3.3-0.2,5c0,0.8-0.1,1.7,0,2.6c0,0,0,0,0,0
		c0,0,0,0,0,0c0,0.9,0.1,1.7,0.3,2.5c-7.4,0-14.7,0-22.1,0c0.5-3.2,0.8-6.9,0.3-10.2C174.4,170.6,178.4,170.6,182.4,170.6z
		 M148.9,170.6c0.8,0,1.7,0,2.5,0c1.9,0,3.8,0,5.8,0c3.4,0,6.7,0,10.1,0c-0.2,1.7-0.2,3.3-0.2,5c0,0,0,0,0,0c0,1.4-0.1,2.8,0.1,4.2
		c0,0.3,0.1,0.7,0.2,1c0,0,0,0,0,0c-3.5,0-6.9,0-10.4,0c-1.4,0-2.9,0-4.3,0c-0.5,0-1,0-1.4,0c-1.7,0-3.5-0.2-5.2,0.3
		c0.7-2.2,0.4-4.7,0.4-7c0-1.1,0.1-2.4,0.1-3.7c0.1,0,0.2,0,0.4,0C147.5,170.6,148.2,170.6,148.9,170.6z M113.2,176
		C113.2,176,113.2,176,113.2,176c1.6-1.6,3.3-3.1,5.1-4.6c0.9-0.7,1.7-1.4,2.6-2c2.7-2,5.4-3.9,8.3-5.5c-0.6,1.5-1.1,2.9-1.7,4.4
		c-0.6,1.4-1.2,2.9-2,4.2c-0.1,0.3-0.3,0.5-0.5,0.8c-1.4,2.4-3.1,4.6-5,6.7c-0.4,0.5-0.9,0.9-1.3,1.4c-1.3,1.3-2.7,2.5-4.2,3.6
		c-1.5,1.1-3.1,2.1-4.7,3c-1.7,0.9-3.4,1.7-5.2,2.4c0,0-0.1,0-0.1,0c-0.4,0.2-0.9,0.3-1.4,0.4c-0.2,0.1-0.3,0.1-0.5,0.2
		c1-2.1,2.1-4.1,3.4-6.1c0.9-1.4,1.9-2.7,2.9-4c0.8-1,1.5-1.9,2.4-2.8C111.9,177.4,112.5,176.7,113.2,176z"/>
</g>
<path class="st0" d="M140.7,212c-0.3,0-0.7,0.1-1,0.2l-30.1,13l-40.1-21c-1.1-0.6-2.4-0.3-3.1,0.7l-9.9,12.8l-13.9-2.3l2.3-8.2
	c0.2-0.6,0.1-1.3-0.2-1.9l-16.8-30.5c-0.6-1.1-2-1.6-3.2-1.1l-4.3,1.9l-12.1-5.2l1.5-0.8l37.6-2.8l9.6,1.9c1.1,0.2,2.1-0.3,2.6-1.2
	l4.1-7.1c0.6-1.1,0.4-2.4-0.6-3.2l-22.2-18.6c-0.8-0.7-1.9-0.8-2.9-0.2l-8.4,4.9l0.5-4.5c0.1-1-0.4-1.9-1.2-2.4l-2.7-1.6l3.2-0.2
	c1.3-0.1,2.3-1.1,2.3-2.4l0-0.8l2.7,2.9c0.4,0.4,1,0.7,1.6,0.8l5.7,0.5l23.2,1.6c1,0.1,1.9-0.4,2.3-1.3c0.5-0.8,0.4-1.9-0.1-2.7
	l-6.7-9.6c-0.5-0.7-1.2-1.1-2-1.1h-10L61,106.9c0.7-0.8,0.8-2,0.2-2.9c-0.6-0.9-1.7-1.3-2.8-1.1l-32.9,9l-5.5-3.2
	c-0.7-0.4-1.6-0.4-2.4-0.1l-8.2,4l-0.3-0.2l2.4-23.5l11.4-13.5l15.5-6.3l65.3-5.8l9.7,11.3c0.5,0.6,1.2,0.9,1.9,0.9h5.1
	c1,0,1.9-0.6,2.3-1.5l3.7-8l10.1,3.2l9.3,8.5c0.2,0.2,0.5,0.4,0.8,0.5l7,2.8c0.8,0.3,1.6,0.2,2.3-0.3c0.7-0.5,1.1-1.2,1.1-2.1V55.5
	l11.4-7.4c1.2-0.7,1.5-2.3,0.8-3.5c-0.7-1.2-2.3-1.5-3.5-0.8L153.4,52c-0.7,0.5-1.1,1.3-1.1,2.1v20.8l-3.2-1.3l-9.3-8.5
	c-0.3-0.2-0.6-0.4-0.9-0.5l-12.8-4c-1.2-0.4-2.5,0.2-3,1.3l-3.9,8.6h-2.3l-9.8-11.4c-0.5-0.6-1.3-0.9-2.1-0.9l-67,6
	c-0.2,0-0.5,0.1-0.7,0.2L20.7,71c-0.4,0.2-0.7,0.4-1,0.7L7.4,86.2c-0.3,0.4-0.5,0.9-0.6,1.4l-2.6,25.6c-0.1,0.8,0.2,1.6,0.8,2.1
	l2.5,2.2c0.8,0.7,1.9,0.8,2.8,0.4l8.5-4.2l5.2,3c0.6,0.3,1.3,0.4,1.9,0.2l26.3-7.2l-11.2,13.6c-0.6,0.7-0.7,1.8-0.3,2.7
	s1.3,1.4,2.3,1.4h14l3,4.3l-18-1.2l-4.7-0.4l-3-3.2l-2.7-5c-0.5-1-1.7-1.5-2.8-1.2c-1.1,0.3-1.9,1.2-1.9,2.3l-0.2,6.7l-3.7,0.3
	c-0.8,0.1-1.5,0.5-1.9,1.1l-1.7,2.6c-0.4,0.6-0.5,1.3-0.3,1.9s0.6,1.2,1.2,1.6l4.6,2.6l-0.8,7.8c-0.1,0.9,0.3,1.8,1.1,2.4
	c0.8,0.5,1.8,0.5,2.6,0.1l11.1-6.4l19.3,16.1l-2.1,3.7l-8.2-1.6c-0.2,0-0.4-0.1-0.7,0l-38.5,2.9c-0.4,0-0.7,0.1-1.1,0.3l-6.3,3.6
	c-0.8,0.5-1.3,1.4-1.2,2.3c0.1,0.9,0.6,1.8,1.5,2.2l17.7,7.6c0.6,0.3,1.4,0.3,2,0l3.2-1.4l15.2,27.6l-2.8,9.9
	c-0.2,0.7-0.1,1.4,0.3,2s1,1,1.7,1.1l18.2,3c0.9,0.2,1.8-0.2,2.4-0.9l9.5-12.4l39.3,20.6c0.4,0.2,0.8,0.3,1.2,0.3
	c0.3,0,0.7-0.1,1-0.2l30.8-13.2l125.5,0v-5L140.7,212z"/>
<circle class="st1" cx="51.9" cy="97.8" r="4"/>
<g>
	<rect x="51.3" y="49.5" class="st1" width="1" height="49"/>
</g>
<g>
	<path class="st0" d="M157.2,170.6c-1.9,0-3.8,0-5.8,0c-0.8,0-1.7,0-2.5,0c-0.7,0-1.4-0.1-2.1-0.2c-0.1,0-0.2,0-0.4,0
		c0.1,1.3-0.1,2.6-0.1,3.7c0,2.2,0.3,4.8-0.4,7c1.7-0.5,3.5-0.3,5.2-0.3c0.5,0,1,0,1.4,0c1.4,0,2.9,0,4.3,0c3.5,0,6.9,0,10.4,0
		c0,0,0,0,0,0c-0.1-0.3-0.2-0.6-0.2-1c-0.2-1.4-0.1-2.8-0.1-4.2c0,0,0,0,0,0c0-1.7,0.1-3.3,0.2-5
		C163.9,170.6,160.6,170.6,157.2,170.6z"/>
	<path class="st0" d="M170.1,180.8c7.4,0,14.7,0,22.1,0c-0.2-0.8-0.3-1.7-0.3-2.5c0,0,0,0,0,0c0,0,0,0,0,0c0-0.9,0-1.8,0-2.6
		c0-1.7,0.1-3.4,0.2-5c-3.2,0-6.5,0-9.7,0c-4,0-8,0-12,0C170.9,173.9,170.6,177.6,170.1,180.8z"/>
	<path class="st0" d="M194.9,180.8c7.3,0,14.7,0,22,0c-0.2-0.8-0.3-1.7-0.3-2.5c0-0.2,0-0.4,0-0.7c0-0.7,0-1.3,0-1.9
		c0-1.7,0.1-3.4,0.2-5.1c-3.8,0-7.6,0-11.4,0c-3.4,0-6.8,0-10.3,0C195.7,173.8,195.4,177.6,194.9,180.8z"/>
	<path class="st0" d="M241.7,176.6c0-0.9,0.1-1.8,0.1-2.6c0-1.1-0.1-2.4-0.1-3.6c-3.7,0.3-7.5,0.1-11.2,0.1c-3.5,0-7,0-10.5,0
		c0.1,0.8,0.2,1.6,0.2,2.5c0.1,2.5-0.1,5.1-0.5,7.5c3.8,0,7.7,0,11.5,0c3.6,0,7.3-0.1,10.8,0.4C241.7,179.6,241.7,178.1,241.7,176.6
		z"/>
	<path class="st0" d="M102.6,190.9c0.2-0.1,0.3-0.1,0.5-0.2c0.5-0.1,0.9-0.3,1.4-0.4c0,0,0.1,0,0.1,0c1.8-0.7,3.6-1.5,5.2-2.4
		c1.6-0.9,3.2-1.9,4.7-3c1.5-1.1,2.9-2.3,4.2-3.6c0.5-0.4,0.9-0.9,1.3-1.4c1.9-2.1,3.6-4.3,5-6.7c0.2-0.3,0.3-0.5,0.5-0.8
		c0.8-1.4,1.4-2.8,2-4.2c0.6-1.4,1.1-2.9,1.7-4.4c-2.9,1.7-5.7,3.5-8.3,5.5c-0.9,0.7-1.8,1.4-2.6,2c-1.8,1.4-3.5,3-5.1,4.6
		c0,0,0,0,0,0c-2.7,2.7-5.1,5.6-7.2,8.8C104.7,186.8,103.6,188.8,102.6,190.9z"/>
</g>
</svg>
