<?xml version="1.0" encoding="utf-8"?>
<!-- Generator: Adobe Illustrator 19.1.0, SVG Export Plug-In . SVG Version: 6.00 Build 0)  -->
<svg version="1.1" id="Object" xmlns="http://www.w3.org/2000/svg" xmlns:xlink="http://www.w3.org/1999/xlink" x="0px" y="0px"
	 viewBox="0 0 160.9 209.5" style="enable-background:new 0 0 160.9 209.5;" xml:space="preserve">
<style type="text/css">
	.st0{fill:#4D5A68;}
	.st1{fill:#FFFFFF;}
</style>
<path class="st0" d="M68.6,32.8v3.3c3.2,2.6,7.2,4.2,11.7,4.2h0.1v-7.6H68.6z"/>
<path class="st1" d="M80.2,46.4v-9c0,0,0,0,0,0v-8.2c-6-0.1-10.4-4.7-10.4-10.5c0-5.8,4.4-10.4,10.4-10.5V0
	c-10,0.1-18.7,8.4-18.7,18.7c0,5.8,2.7,11,6.7,14.5v2.9c0,5.9-4.4,10.3-10.3,10.3H39.2v12h2.3c14.5,0,27.6,12,29.1,26.5
	c2,20.2,2.8,46.8,0,68.1c-1.7,12.9-22.8,10.6-27.9,8.5c-6.9-2.8-10.6-6.2-12.6-9.7c-0.9-1.6-1.4-3.1-1.6-4.7
	c0.4,0.1,0.9,0.2,1.3,0.3c0.5,0.1,0.9,0.2,1.4,0.3c0.3,0.1,0.7,0.2,1,0.2c3.6,0.8,6.7,1.5,8.8,2.1c0.9,0.2,1.6-0.6,1.2-1.5
	c-2.3-5.1-5.4-13-7.2-18.2c-2.9-8.4-4.6-16.3-5.5-23c-0.1-0.9-1.2-1.2-1.8-0.5L0.2,141.5c-0.5,0.7-0.1,1.7,0.8,1.7
	c2.8,0,7.2,0.5,12.1,1.2c0.4,0.1,0.8,0.1,1.1,0.2c-0.1,1.3-0.2,2.5-0.2,3.8c-0.1,8.1,1.9,15.8,7.3,22.5
	c9.3,11.6,23.1,13.6,35.4,20.6c8.2,4.6,16.4,11.9,23.4,18.1V46.4L80.2,46.4z"/>
<path d="M160.6,141.5l-27.6-34.7c-0.5-0.7-1.6-0.4-1.8,0.5c-1,6.7-2.6,14.5-5.5,23c-1.8,5.2-4.9,13.2-7.2,18.2
	c-0.4,0.8,0.4,1.7,1.2,1.5c1.2-0.3,2.4-0.7,4.4-1.1v0c2-0.5,5.2-1.1,8.2-1.7c-0.2,1.5-0.7,3.1-1.6,4.6c-1.9,3.6-5.7,7-12.6,9.9
	c-5.1,2-26.2,4.4-27.9-8.5c-2.9-21.3-2-48,0-68.1c1.5-14.5,14.6-26.5,29.1-26.5h1.8v-12h-18.2c-5.9,0-10.8-4.4-10.8-10.3v-2.9
	c4-3.4,6.9-8.6,6.9-14.5C99.1,8.4,90.7,0,80.4,0c0,0-0.2,0-0.2,0v8.2c0,0,0.1,0,0.2,0c5.8,0,10.5,4.7,10.5,10.5
	c0,5.8-4.7,10.5-10.5,10.5c0,0-0.2,0-0.2,0v3.2l0,0v7.9l0,6.4l0.2,162.8c7.1-6.3,15.3-13.5,23.6-18.1c12.2-7,26.2-9,35.5-20.6
	c5.4-6.7,7.3-14.5,7.2-22.6c0-1.2-0.1-2.4-0.2-3.6c0.2,0,0.4-0.1,0.6-0.1c5.1-0.8,9.7-1.3,12.6-1.3
	C160.7,143.2,161.2,142.2,160.6,141.5z"/>
</svg>
