<?xml version="1.0" encoding="utf-8"?>
<!-- Generator: Adobe Illustrator 19.1.0, SVG Export Plug-In . SVG Version: 6.00 Build 0)  -->
<svg version="1.1" id="Object" xmlns="http://www.w3.org/2000/svg" xmlns:xlink="http://www.w3.org/1999/xlink" x="0px" y="0px"
	 viewBox="0 0 186 203.3" style="enable-background:new 0 0 186 203.3;" xml:space="preserve">
<style type="text/css">
	.st0{fill:#FFFFFF;}
</style>
<path d="M182.8,181.9l-17.2-34c2.7-0.2,4.9-2.4,4.9-5.2c0-0.3,0-0.7-0.1-1c-0.4-2.5-2.6-4.4-5.2-4.4h-10.6c2.5,0,4.3-1.8,4.3-4.3
	v-1.6c0-2.5-1.8-4.1-4.3-4.1H134v-9h27v-8h-27v-14h8v-8h-8v-17h0.1l0-0.1L65.6,6.1L69,4c0.4-0.3,0.3-0.9-0.1-1l-9.5-3L38.1,5.9
	L5.2,39c-1.7,0-3.2,1.4-3.2,3.1c0,1.4,1,2.5,2,3v71.2h2V45.1c2-0.4,2.3-1.6,2.3-3c0-0.1,0.1-0.2,0-0.3l34.6-21.6l51.8,71.1
	l18.4,19.9c-1,0.7-1.6,1.8-1.6,3.1c0,2.2,1.8,4,4.1,4H126v9h-7.5c-2.5,0-4.5,1.7-4.5,4.1v1.6c0,2.5,2.1,4.3,4.5,4.3H108
	c-2.6,0-4.7,2-5.2,4.4c0,0.3-0.1,0.6-0.1,0.9c0,2.7,2.1,5,4.8,5.2l-17.3,34c-1.7,0-3.3,1.4-3.3,3.2v2.3v1.9c0,1.7,1.7,3.1,3.4,3.1
	H92v7.3c0,1.9,1.4,3.7,3.3,3.7h8.8c1.9,0,3.9-1.9,3.9-3.7v-7.3h28.5H166v7.3c0,1.9,1.1,3.7,3,3.7h8.8c1.9,0,3.2-1.9,3.2-3.7v-7.3
	h1.7c1.7,0,3.3-1.3,3.3-3.1v-1.9v-2.3C186,183.3,184.5,181.9,182.8,181.9z M81.7,56.8l1.1-27.9l41,39.6l-39-8.2L81.7,56.8z
	 M61.7,8.5l16.8,16.2l-26.6-10L61.7,8.5z M48.5,16.8l31.2,11.7l-1,24.8L47.2,17.6L48.5,16.8z M119,110.3l-15.2-28.5L88.1,64.3
	l37.9,8.1v16h-7v8h7v14H119z M139,149.2l39.7,33.1H139V149.2z M142.1,148.3h20l14,27.7L142.1,148.3z M111,148.3h20l-34,27.7
	L111,148.3z M135,149.2v33.1H94.4L135,149.2z"/>
<path class="st0" d="M7,103.1H3.5c-1.2,0-2.1,1-2.1,2.1v5.5c0,1.2,1,2.1,2.1,2.1H7c1.2,0,2.1-1,2.1-2.1v-5.5
	C9.1,104,8.1,103.1,7,103.1z"/>
<path class="st0" d="M0.2,125.3c-0.6-2.2,0.2-5.2,2.5-6l0.2,1.4c-1.3,0.7-0.6,7.2,3.7,6.6c1.6-0.2,3.4-1.6,3.4-4.2
	c0-5.1-4.5-3.9-5.6-7.1c-0.1-0.4-0.4-3-0.3-3c0,0,2.6,0,2.6,0v0.4c0,1.2,0.6,2.3,1.7,2.8c2.1,1,4.2,3,4.2,7
	C12.5,130.7,2.4,132.6,0.2,125.3z"/>
<path class="st0" d="M153.4,100.3h-21.8c-4.7,0-8.6,3.7-8.6,8.4v5.5v4.4c0,4.7,3.9,8.8,8.6,8.8h21.8c4.7,0,8.6-4.1,8.6-8.8v-4.4
	v-5.5C162,104,158,100.3,153.4,100.3z"/>
<path class="st0" d="M164.3,66.3h-9.7c-2.1,0-3.5,1.6-3.5,3.7v1.3h-42v8h42v0c0,2.1,1.5,4,3.5,4h9.7c2.1,0,3.7-2,3.7-4V70
	C168,67.9,166.3,66.3,164.3,66.3z"/>
</svg>
