<?xml version="1.0" encoding="utf-8"?>
<!-- Generator: Adobe Illustrator 19.1.0, SVG Export Plug-In . SVG Version: 6.00 Build 0)  -->
<svg version="1.1" id="Object" xmlns="http://www.w3.org/2000/svg" xmlns:xlink="http://www.w3.org/1999/xlink" x="0px" y="0px"
	 viewBox="0 0 215 140.5" style="enable-background:new 0 0 215 140.5;" xml:space="preserve">
<style type="text/css">
	.st0{fill:#FFFFFF;}
</style>
<path class="st0" d="M25.3,111h164.5c2.7,0,4.9-2.2,4.9-4.9V4.9c0-2.7-2.2-4.9-4.9-4.9H25.3c-2.7,0-4.9,2.2-4.9,4.9v101.2
	C20.4,108.8,22.6,111,25.3,111z M31.6,10.6h151.6v89.4H31.6V10.6z"/>
<path class="st0" d="M196,114.4c-0.9-0.8-2-1.3-3.1-1.3H22.1c-1.1,0-2.2,0.4-3.1,1.3L1.8,130.6c-3.6,3.3-1.5,10,3.1,10h205.2
	c4.6,0,6.7-6.6,3.1-10L196,114.4z"/>
<rect x="31.3" y="10.3" width="152" height="90"/>
<g>
	<path class="st0" d="M91.2,80.9c-3-1.6-5.3-3.8-6.9-6.7c-1.6-2.9-2.5-6.2-2.5-10.1V49.4c0-4.4,0.9-8.3,2.8-11.6
		c1.9-3.3,4.4-5.9,7.8-7.8c3.3-1.8,7.2-2.7,11.6-2.7h14.7c3.9,0,7.3,0.8,10.2,2.3c2.9,1.5,5.2,3.7,6.9,6.5c1.6,2.8,2.4,6.1,2.4,9.7
		v12.3c0,4-0.8,7-2.4,9.2c-1.6,2.2-4,3.2-7,3.2h-2.4c-1.4,0-2.8-0.5-4-1.4c-1.3-0.9-2.2-2.1-2.9-3.7h-0.1c-0.9,1.7-2.3,3.1-4,4.2
		c-1.7,1.1-3.4,1.6-5.2,1.6h-3.8c-3.2,0-5.7-1.1-7.8-3.2c-2-2.1-3-5-3-8.4v-7c0-3.8,1.1-6.8,3.3-9.1c2.2-2.3,5.1-3.5,8.7-3.5h3.5
		c1.4,0,2.7,0.4,4,1c1.3,0.7,2.3,1.6,3.1,2.7v-3.4h4.6v20.8c0,1.4,0.3,2.5,1,3.4c0.7,0.9,1.6,1.3,2.8,1.3h2.2c1.4,0,2.5-0.7,3.3-2
		s1.1-3.3,1.1-5.8V45.8c0-4.2-1.3-7.5-4-10c-2.6-2.5-6.1-3.8-10.5-3.8H104c-3.4,0-6.4,0.7-9,2.2c-2.6,1.5-4.6,3.5-6,6.1
		c-1.4,2.6-2.1,5.6-2.1,9v14.8c0,4.3,1.3,7.8,4,10.4c2.7,2.6,6.2,4,10.6,4h13.1c2,0,4.1-0.3,6.3-1c2.2-0.6,4.1-1.5,5.6-2.5l2.6,3.9
		c-1.5,1.3-3.7,2.3-6.4,3.2c-2.7,0.8-5.5,1.2-8.4,1.2h-12.8C97.6,83.3,94.2,82.5,91.2,80.9z M110.2,66.8c2.1,0,3.9-0.7,5.2-2.2
		s2.1-3.5,2.4-5.9v-7.5c-0.2-2-0.9-3.6-2.1-4.9c-1.2-1.2-2.7-1.8-4.4-1.8h-3.5c-2.1,0-3.8,0.7-5.1,2.2c-1.3,1.5-1.9,3.4-1.9,5.9v7
		c0,2.1,0.5,3.9,1.6,5.2c1.1,1.3,2.4,2,4.1,2H110.2z"/>
</g>
</svg>
