<?xml version="1.0" encoding="utf-8"?>
<!-- Generator: Adobe Illustrator 19.1.0, SVG Export Plug-In . SVG Version: 6.00 Build 0)  -->
<svg version="1.1" id="Calque_1" xmlns="http://www.w3.org/2000/svg" xmlns:xlink="http://www.w3.org/1999/xlink" x="0px" y="0px"
	 viewBox="0 0 223.7 225.4" style="enable-background:new 0 0 223.7 225.4;" xml:space="preserve">
<style type="text/css">
	.st0{fill:#1D1D1B;}
	.st1{fill:none;}
	.st2{fill:#FFFFFF;}
</style>
<path class="st0" d="M142.5,186.3c0-6.7-5.5-12.2-12.2-12.2s-12.2,5.5-12.2,12.2v21.2h24.5V186.3z"/>
<path class="st0" d="M123.9,150h12.6v-11.5c0-3.5-2.8-6.3-6.3-6.3c-3.5,0-6.3,2.8-6.3,6.3V150z"/>
<path class="st0" d="M136.6,98.4c0-3.5-2.8-6.3-6.3-6.3c-3.5,0-6.3,2.8-6.3,6.3v11.5h12.6V98.4z"/>
<rect x="108.5" y="47.1" class="st0" width="11.9" height="21.6"/>
<rect x="123.3" y="47.1" class="st0" width="12" height="21.6"/>
<rect x="138.6" y="47.1" class="st0" width="12" height="21.6"/>
<rect x="64" y="179.2" class="st0" width="10.4" height="17.4"/>
<path class="st1" d="M4,223.3C4.1,223.3,4.1,223.3,4,223.3l0-0.3C4.1,223.1,4.1,223.2,4,223.3z"/>
<path class="st2" d="M208.3,207h-44.2l0.1,1.9c0,0,0,0.1,0,0.1c0,0,0-0.1,0-0.1l-0.1-1.9l-9-126.1h4.3c1.1,0,2-1,2-2.2v-8.7
	c0-1.1-0.8-2.2-2-2.2h-6V48h4.1c1.1,0,1.9-1.3,1.9-2.4v-6.2c0-1.1-0.7-2.3-1.9-2.3h-4.6c-0.9-10-8.7-18.8-18.8-20.8c0,0,0,0,0,0
	c0-1.8-0.7-3.4-2.7-4.1V2c0-1.1-0.9-2-2-2c-1.1,0-2,0.9-2,2v10.1c-1,0.7-2.6,2.3-2.6,4.2c0,0,0,0,0,0c-10,2-17.7,10.8-18.6,20.8H102
	c-1.1,0-1.6,1.2-1.6,2.3v6.2c0,1.1,0.5,2.4,1.6,2.4h3.4v20H100c-1.1,0-1.7,1-1.7,2.2v8.7c0,1.1,0.6,2.2,1.7,2.2h5.3l-4.1,57H77h0h0
	c0,0,0,0,0,0c-0.1,0-0.2,0-0.3,0c0,0-0.1,0-0.1,0c-0.1,0-0.2,0-0.2,0.1c0,0-0.1,0-0.1,0.1c-0.1,0-0.1,0.1-0.2,0.1c0,0-0.1,0-0.1,0.1
	c-0.1,0-0.1,0.1-0.2,0.1c0,0,0,0-0.1,0l-33,28.6c-0.7,0.6-0.9,1.6-0.6,2.4s1.1,1.5,1.9,1.5h5.4v36H15.9c-8.5,0-15.4,6.7-15.9,15.1
	c1.2,0.5,2.6,0.9,4,1.2c0-0.1,0-0.2,0-0.3l0,0.3c2.4,0.5,5.1,0.8,8.2,0.8c19.9,0,23.8-12.4,23.8-12.4s-1,13,24.8,13
	c20.8,0,22.5-7.6,22.5-10.6c-0.2-0.7-0.1-1.1-0.1-1.1s0.1,0.4,0.1,1.1c0.6,3,4,10.6,22.2,10.6c22.6,0,23.3-12.2,23.3-12.2
	s3.6,12.8,24.4,12.8c20.8,0,24.9-13.1,24.9-13.1s-0.5,12.7,24.2,12.7c11.3,0,17.8-2.9,21.5-6.1C221.9,212.1,215.7,207,208.3,207z
	 M96.2,208.9l0.1-1.9h0L96.2,208.9C96.2,208.9,96.2,208.9,96.2,208.9z M136.3,98.4V110h-12V98.4c0-3.5,2.5-6.3,6-6.3
	S136.3,94.9,136.3,98.4z M74.3,197h-10v-18h10V197z M142.3,186.3V207h-24v-20.7c0-6.7,5.3-12.2,12-12.2
	C137.1,174,142.3,179.5,142.3,186.3z M136.3,138.6V150h-12v-11.4c0-3.5,2.5-6.3,6-6.3S136.3,135.1,136.3,138.6z M150.3,47v22h-12V47
	H150.3z M135.3,47v22h-12V47H135.3z M120.3,47v22h-12V47H120.3z"/>
<path class="st0" d="M83.3,214.2c0-0.7-0.1-1.1-0.1-1.1S83.1,213.5,83.3,214.2z"/>
</svg>
