<?xml version="1.0" encoding="utf-8"?>
<!-- Generator: Adobe Illustrator 19.1.0, SVG Export Plug-In . SVG Version: 6.00 Build 0)  -->
<svg version="1.1" id="Calque_1" xmlns="http://www.w3.org/2000/svg" xmlns:xlink="http://www.w3.org/1999/xlink" x="0px" y="0px"
	 viewBox="0 0 845.6 540" style="enable-background:new 0 0 845.6 540;" xml:space="preserve">
<style type="text/css">
	.st0{opacity:0.5;fill:#FFFFFF;}
	.st1{fill-rule:evenodd;clip-rule:evenodd;}
	.st2{fill-rule:evenodd;clip-rule:evenodd;fill:#FFFFFF;}
	.st3{fill:none;stroke:#325490;stroke-width:3.4043;stroke-miterlimit:7.6613;}
	.st4{fill:#FFFFFF;}
</style>
<rect x="165.8" y="309.5" transform="matrix(0.9949 -0.1009 0.1009 0.9949 -30.4993 20.3373)" class="st0" width="39.8" height="4"/>
<rect x="511.1" y="506.8" transform="matrix(0.3875 0.9219 -0.9219 0.3875 794.302 -177.8711)" class="st0" width="39.8" height="4"/>
<rect x="649.4" y="309.1" transform="matrix(0.9949 0.1009 -0.1009 0.9949 34.8229 -65.979)" class="st0" width="39.8" height="4"/>
<rect x="607.4" y="157.5" transform="matrix(0.8728 -0.4881 0.4881 0.8728 1.922 326.4953)" class="st0" width="39.8" height="4"/>
<rect x="576.9" y="117" transform="matrix(0.7324 -0.6809 0.6809 0.7324 78.6807 438.2342)" class="st0" width="39.8" height="4"/>
<rect x="564.4" y="102.7" transform="matrix(0.6394 -0.7689 0.7689 0.6394 130.2269 487.0001)" class="st0" width="39.8" height="4"/>
<rect x="546.9" y="89.7" transform="matrix(0.5322 -0.8466 0.8466 0.5322 187.4633 522.8247)" class="st0" width="39.8" height="4"/>
<rect x="443.7" y="44.5" transform="matrix(0.1009 -0.9949 0.9949 0.1009 370.5911 503.0803)" class="st0" width="39.8" height="4"/>
<g>
	<path class="st1" d="M558.5,88.1c-18-11.8-37.6-20.9-58.3-27.5c-23.6-7.8-48.6-11.5-73.6-11.6c-25.2,0.3-50,4.2-73.8,12l37.4,113.6
		c12.1-4,24.4-6.2,36.8-5.9c12.6-0.2,25.2,1.8,36.9,5.6c10.4,3.1,20,7.9,29.1,13.6L558.5,88.1z"/>
</g>
<g>
	<path class="st2" d="M575.1,100c-5.3-4-10.9-8-16.6-11.9l-65.6,99.7c2.8,2,5.6,3.9,8.2,6.3L575.1,100z"/>
</g>
<g>
	<path class="st1" d="M590.8,113.6c-5.2-4.8-10.3-9.3-15.7-13.6l-73.9,94.2c2.8,2,5.4,4.4,7.9,6.4L590.8,113.6z"/>
</g>
<g>
	<path class="st2" d="M600,122.9c-2.8-3.1-6.1-6.3-9.2-9.3l-81.7,87c1.6,1.6,3.2,3.3,4.9,4.9L600,122.9z"/>
</g>
<g>
	<path class="st1" d="M647.8,195.5c-7.1-17.2-16.5-33.6-27.6-48.8c-5.9-8.2-13-16.4-20.1-23.8L514,205.5c3.4,3.6,6.8,7.5,10,11.6
		c5.4,7.6,9.9,15.9,13.5,24.5L647.8,195.5z"/>
</g>
<g>
	<path class="st2" d="M638,400.9c6.7-12.7,12.4-26.1,16.8-40.3c7.7-23.9,11.5-48.6,11.6-73.6c-0.3-25.2-4.2-50-12-73.8
		c-2-6.2-4.3-12-6.6-17.7l-110.4,46.1c1.3,2.8,2.7,6,3.7,8.9c3.9,11.8,5.8,24.1,5.9,36.8c-0.2,12.7-2.3,25-5.9,37
		c-2.1,6.8-4.9,13.6-8.6,20.2L638,400.9z"/>
</g>
<g>
	<path class="st1" d="M363.1,517.8c21.2,6.1,43.1,9,65.2,8.9c25.2-0.3,50-4.2,73.8-12c23.8-7.8,46-19.5,66.5-34.2
		c20.1-14.9,38.1-32.8,52.4-53.1c6.2-8.6,11.7-17.2,16.9-26.6l-105.4-56.5c-2.5,4.4-5,8.9-8.3,13.2c-7.2,10-16.2,19.1-26.4,26.4
		c-9.8,7.6-21,13.1-33.1,17c-11.8,3.9-24,6.1-36.8,5.9c-11.2,0.1-22.2-1.4-32.6-4.5L363.1,517.8z"/>
</g>
<g>
	<path class="st2" d="M352.8,61c-23.8,7.8-46,19.5-66.5,34.2c-20.1,14.9-37.7,32.7-52.4,53.1c-14.6,20.4-26,42.9-33.7,66.8
		c-7.7,23.9-11.5,48.6-11.6,73.6c0.3,25.2,4.5,49.9,12.3,73.7c7.8,23.8,19.2,46.2,33.9,66.6c14.9,20.1,32.7,37.7,53.1,52.4
		c20.4,14.6,42.9,26,66.8,33.7c2.8,0.9,5.6,1.8,8.5,2.6l32.3-115.2c-1.5-0.2-2.8-0.9-4.3-1.1c-12.2-4-23-9.4-33.4-16.9
		c-10.1-7.5-19.1-16.2-26.4-26.4c-7.7-10.1-13.2-21.4-17-33.1c-4-12.1-6.2-24.4-6.1-37.1c-0.1-12.3,1.9-24.9,5.7-36.6
		c4-12.2,9.3-23.3,16.9-33.4c7.5-10.1,16.2-19.1,26.4-26.4c10.1-7.7,21.4-13.2,33.1-17L352.8,61z"/>
</g>
<g>
	<path class="st3" d="M148,265.2"/>
</g>
<g>
	<path class="st4" d="M475.7,12.3h-5.8l-1.4,3.6h-3.2l6-15.4h1.4c1,0,1.6,0.4,1.9,1.3l5.5,14.1H477L475.7,12.3z M470.8,9.7h4.1
		l-2-5.5h0L470.8,9.7z"/>
	<path class="st4" d="M483.7,19.3c-0.8-0.7-1.2-1.5-1.3-2.6h2.9c0,0.3,0.2,0.6,0.4,0.8c0.2,0.2,0.5,0.3,0.9,0.3h2
		c0.5,0,0.8-0.2,1.1-0.6c0.3-0.4,0.4-0.9,0.4-1.5v-1c-0.3,0.3-0.6,0.6-1.1,0.8c-0.4,0.2-0.8,0.3-1.2,0.3h-1.5
		c-1.3,0-2.4-0.4-3.2-1.2s-1.2-1.8-1.2-3.1V9.2c0-0.9,0.2-1.7,0.6-2.4c0.4-0.7,0.9-1.2,1.6-1.6c0.7-0.4,1.5-0.6,2.4-0.6h1.3
		c0.5,0,1,0.1,1.5,0.4c0.5,0.2,0.9,0.5,1.2,0.9V4.9h2.8v10.9c0,0.9-0.2,1.7-0.6,2.4c-0.4,0.7-0.9,1.2-1.6,1.6
		c-0.7,0.4-1.5,0.6-2.4,0.6h-2C485.4,20.3,484.4,20,483.7,19.3z M488,13.3c0.6,0,1-0.2,1.4-0.7s0.6-1.1,0.7-1.8V9.2
		c-0.1-0.6-0.3-1.1-0.6-1.4c-0.3-0.4-0.8-0.5-1.3-0.5h-1.5c-0.5,0-1,0.2-1.3,0.6s-0.5,0.9-0.5,1.6v1.8c0,0.6,0.2,1.1,0.5,1.5
		s0.7,0.5,1.2,0.5H488z"/>
	<path class="st4" d="M496.8,4.9h2.8v1.4c0.3-0.4,0.7-0.8,1.2-1c0.5-0.3,1.1-0.4,1.6-0.4h1.5v2.6h-1.5c-0.8,0-1.4,0.2-1.9,0.7
		c-0.5,0.5-0.7,1.1-0.7,1.8v5.9h-3V4.9z"/>
	<path class="st4" d="M506.8,3.4c-0.3-0.3-0.5-0.8-0.5-1.3s0.2-1,0.5-1.3c0.3-0.3,0.8-0.5,1.4-0.5c0.6,0,1,0.2,1.4,0.5
		c0.3,0.3,0.5,0.8,0.5,1.3s-0.2,1-0.5,1.3c-0.3,0.3-0.8,0.5-1.4,0.5C507.6,3.9,507.1,3.7,506.8,3.4z M506.7,4.9h3v11h-3V4.9z"/>
	<path class="st4" d="M515.5,15.5c-0.7-0.4-1.3-0.9-1.6-1.5s-0.6-1.4-0.6-2.3V9.1c0-0.9,0.2-1.6,0.6-2.3s0.9-1.2,1.6-1.5
		c0.7-0.4,1.5-0.5,2.4-0.5h1.7c0.9,0,1.7,0.2,2.3,0.5s1.2,0.8,1.6,1.5c0.4,0.6,0.6,1.4,0.6,2.2h-3c0-0.5-0.1-0.9-0.4-1.2
		c-0.3-0.3-0.6-0.5-1.1-0.5H518c-0.5,0-0.9,0.2-1.2,0.6s-0.5,0.9-0.5,1.5v2.1c0,0.6,0.2,1.1,0.5,1.5c0.3,0.4,0.7,0.6,1.3,0.6h1.7
		c0.5,0,0.8-0.2,1.1-0.5s0.4-0.8,0.4-1.3h3c0,1.3-0.4,2.4-1.2,3.2c-0.8,0.8-1.9,1.2-3.3,1.2H518C517,16.1,516.2,15.9,515.5,15.5z"/>
	<path class="st4" d="M528.1,14.9c-0.7-0.8-1.1-1.8-1.1-3.1V4.9h3v6.9c0,0.5,0.1,0.9,0.4,1.2c0.2,0.3,0.6,0.5,1,0.5h1.3
		c0.5,0,0.9-0.2,1.3-0.6c0.4-0.4,0.7-0.9,0.8-1.6V4.9h3v11H535v-1.4c-0.3,0.5-0.8,0.9-1.2,1.1c-0.5,0.3-1,0.4-1.4,0.4h-1.5
		C529.7,16.1,528.8,15.7,528.1,14.9z"/>
	<path class="st4" d="M542.3,15.1c-0.6-0.5-0.9-1.4-0.9-2.6v-12h3v11.8c0,0.4,0.1,0.6,0.2,0.8c0.2,0.2,0.4,0.2,0.8,0.2h1.2v2.6h-1.4
		C543.9,15.9,542.9,15.6,542.3,15.1z"/>
	<path class="st4" d="M551,15c-0.6-0.6-0.9-1.5-0.9-2.7V7.5h-1.9V4.9h2V1.6h2.9v3.3h2.9v2.6h-2.9v4.7c0,0.4,0.1,0.7,0.2,0.9
		c0.2,0.2,0.4,0.3,0.7,0.3h1.9v2.6h-2.1C552.5,15.9,551.6,15.6,551,15z"/>
	<path class="st4" d="M559.9,14.9c-0.7-0.8-1.1-1.8-1.1-3.1V4.9h3v6.9c0,0.5,0.1,0.9,0.4,1.2c0.2,0.3,0.6,0.5,1,0.5h1.3
		c0.5,0,0.9-0.2,1.3-0.6s0.7-0.9,0.8-1.6V4.9h3v11h-2.8v-1.4c-0.3,0.5-0.8,0.9-1.2,1.1c-0.5,0.3-1,0.4-1.4,0.4h-1.5
		C561.5,16.1,560.6,15.7,559.9,14.9z"/>
	<path class="st4" d="M573.2,4.9h2.8v1.4c0.3-0.4,0.7-0.8,1.2-1c0.5-0.3,1.1-0.4,1.6-0.4h1.5v2.6h-1.5c-0.8,0-1.4,0.2-1.9,0.7
		c-0.5,0.5-0.7,1.1-0.7,1.8v5.9h-3V4.9z"/>
	<path class="st4" d="M584.2,15.5c-0.7-0.3-1.3-0.8-1.7-1.5c-0.4-0.6-0.6-1.3-0.6-2.1V9.1c0-0.9,0.2-1.6,0.6-2.3
		c0.4-0.7,0.9-1.2,1.7-1.5c0.7-0.4,1.5-0.5,2.5-0.5h1.8c1.4,0,2.5,0.4,3.4,1.2s1.3,1.8,1.3,3.2v2.3H585v0.5c0,0.5,0.2,0.9,0.5,1.2
		c0.3,0.3,0.7,0.4,1.3,0.4h1.7c0.5,0,0.9-0.1,1.2-0.3s0.5-0.5,0.5-0.9h2.9c0,0.7-0.2,1.4-0.6,2c-0.4,0.6-0.9,1-1.7,1.3
		c-0.7,0.3-1.5,0.5-2.5,0.5h-1.7C585.8,16.1,584.9,15.9,584.2,15.5z M590.2,9.3V9.1c0-0.6-0.2-1-0.5-1.4c-0.3-0.3-0.7-0.5-1.2-0.5
		h-1.8c-0.5,0-1,0.2-1.3,0.5c-0.3,0.4-0.5,0.9-0.5,1.5v0.1H590.2z"/>
	<path class="st4" d="M606.3,3.8l-3.5,1.8V2.8l4.3-2.3h2.3v15.4h-3V3.8z"/>
	<path class="st4" d="M620.3,12.9h-6.3c-0.6,0-1.1-0.1-1.4-0.4c-0.3-0.3-0.5-0.6-0.5-1.1v-0.6l8.2-10.3h3.1v9.8h1.9v2.7h-1.9v2.9h-3
		V12.9z M620.4,10.4V4.3h0l-4.8,6.1H620.4z"/>
	<path class="st4" d="M628.6,9.2c-0.7-0.7-1-1.5-1-2.6V3.9c0-1.1,0.3-2,1-2.6c0.7-0.7,1.6-1,2.7-1h1.2c1.1,0,2,0.3,2.7,1
		c0.7,0.7,1,1.5,1,2.6v2.6c0,1.1-0.3,2-1,2.6c-0.7,0.7-1.6,1-2.7,1h-1.2C630.1,10.2,629.2,9.8,628.6,9.2z M632.4,7.8
		c0.3,0,0.6-0.1,0.7-0.4c0.2-0.3,0.3-0.6,0.3-1V4.1c0-0.4-0.1-0.8-0.3-1c-0.2-0.3-0.4-0.4-0.7-0.4h-1.1c-0.3,0-0.6,0.1-0.7,0.4
		c-0.2,0.3-0.3,0.6-0.3,1v2.2c0,0.4,0.1,0.8,0.3,1c0.2,0.3,0.4,0.4,0.7,0.4H632.4z M641.1,0h3.1l-8.7,16.4h-3.1L641.1,0z
		 M641.4,15.1c-0.7-0.7-1-1.5-1-2.6V9.8c0-1.1,0.3-2,1-2.6c0.7-0.7,1.6-1,2.7-1h1.2c1.1,0,2,0.3,2.7,1c0.7,0.7,1,1.5,1,2.6v2.6
		c0,1.1-0.3,2-1,2.6c-0.7,0.7-1.6,1-2.7,1h-1.2C643,16.1,642.1,15.7,641.4,15.1z M645.3,13.7c0.3,0,0.6-0.1,0.7-0.4
		c0.2-0.3,0.3-0.6,0.3-1V10c0-0.4-0.1-0.8-0.3-1c-0.2-0.3-0.4-0.4-0.7-0.4h-1.1c-0.3,0-0.6,0.1-0.7,0.4c-0.2,0.3-0.3,0.6-0.3,1v2.2
		c0,0.4,0.1,0.8,0.3,1c0.2,0.3,0.4,0.4,0.7,0.4H645.3z"/>
</g>
<g>
	<path class="st4" d="M579.2,48.4h8.1c0.9,0,1.7,0.2,2.4,0.5s1.2,0.8,1.6,1.5c0.4,0.6,0.6,1.4,0.6,2.2v2c0,0.9-0.2,1.6-0.6,2.3
		c-0.4,0.7-0.9,1.2-1.7,1.5c-0.7,0.4-1.5,0.5-2.5,0.5h-4.9v4.9h-3V48.4z M587.1,56.3c0.5,0,0.9-0.2,1.3-0.5s0.5-0.8,0.5-1.3v-1.8
		c0-0.5-0.1-0.9-0.4-1.2c-0.3-0.3-0.7-0.5-1.1-0.5h-5v5.3H587.1z"/>
	<path class="st4" d="M596.2,63.5c-0.7-0.3-1.3-0.8-1.7-1.5c-0.4-0.6-0.6-1.3-0.6-2.1V57c0-0.9,0.2-1.6,0.6-2.3
		c0.4-0.7,0.9-1.2,1.7-1.5c0.7-0.4,1.5-0.5,2.5-0.5h1.8c1.4,0,2.5,0.4,3.4,1.2s1.3,1.8,1.3,3.2v2.3H597v0.5c0,0.5,0.2,0.9,0.5,1.2
		c0.3,0.3,0.7,0.4,1.3,0.4h1.7c0.5,0,0.9-0.1,1.2-0.3s0.5-0.5,0.5-0.9h2.9c0,0.7-0.2,1.4-0.6,2c-0.4,0.6-0.9,1-1.7,1.3
		c-0.7,0.3-1.5,0.5-2.5,0.5h-1.7C597.7,64,596.9,63.8,596.2,63.5z M598.5,47.2h2l3.3,4.1h-2.7l-1.6-2.1l-1.6,2.1h-2.6L598.5,47.2z
		 M602.1,57.2V57c0-0.6-0.2-1-0.5-1.4c-0.3-0.3-0.7-0.5-1.2-0.5h-1.8c-0.5,0-1,0.2-1.3,0.5c-0.3,0.4-0.5,0.9-0.5,1.5v0.1H602.1z"/>
	<path class="st4" d="M610,63.4c-0.7-0.4-1.3-0.9-1.6-1.5s-0.6-1.4-0.6-2.3V57c0-0.9,0.2-1.6,0.6-2.3s0.9-1.2,1.6-1.5
		c0.7-0.4,1.5-0.5,2.4-0.5h1.7c0.9,0,1.7,0.2,2.3,0.5s1.2,0.8,1.6,1.5c0.4,0.6,0.5,1.4,0.5,2.2h-3c0-0.5-0.1-0.9-0.4-1.2
		c-0.3-0.3-0.6-0.5-1.1-0.5h-1.7c-0.5,0-0.9,0.2-1.2,0.6s-0.5,0.9-0.5,1.5v2.1c0,0.6,0.2,1.1,0.5,1.5s0.7,0.6,1.3,0.6h1.7
		c0.5,0,0.8-0.2,1.1-0.5s0.4-0.8,0.4-1.3h3c0,1.3-0.4,2.4-1.2,3.2c-0.8,0.8-1.9,1.2-3.3,1.2h-1.7C611.5,64,610.7,63.8,610,63.4z"/>
	<path class="st4" d="M621.6,48.4h3v5.5c0.3-0.4,0.7-0.7,1.2-0.9c0.5-0.2,0.9-0.4,1.4-0.4h1.4c1.2,0,2.1,0.4,2.8,1.1
		c0.7,0.7,1.1,1.7,1.1,2.9v7.1h-3v-7c0-0.5-0.1-0.8-0.4-1.1c-0.2-0.3-0.6-0.4-0.9-0.4h-1.4c-0.5,0-1,0.2-1.4,0.6s-0.7,0.9-0.8,1.5
		v6.5h-3V48.4z"/>
	<path class="st4" d="M637.8,63.5c-0.7-0.3-1.3-0.8-1.7-1.5c-0.4-0.6-0.6-1.3-0.6-2.1V57c0-0.9,0.2-1.6,0.6-2.3
		c0.4-0.7,0.9-1.2,1.7-1.5c0.7-0.4,1.5-0.5,2.5-0.5h1.8c1.4,0,2.5,0.4,3.4,1.2s1.3,1.8,1.3,3.2v2.3h-8.1v0.5c0,0.5,0.2,0.9,0.5,1.2
		c0.3,0.3,0.7,0.4,1.3,0.4h1.7c0.5,0,0.9-0.1,1.2-0.3s0.5-0.5,0.5-0.9h2.9c0,0.7-0.2,1.4-0.6,2c-0.4,0.6-0.9,1-1.7,1.3
		c-0.7,0.3-1.5,0.5-2.5,0.5h-1.7C639.3,64,638.5,63.8,637.8,63.5z M643.7,57.2V57c0-0.6-0.2-1-0.5-1.4c-0.3-0.3-0.7-0.5-1.2-0.5
		h-1.8c-0.5,0-1,0.2-1.3,0.5c-0.3,0.4-0.5,0.9-0.5,1.5v0.1H643.7z"/>
	<path class="st4" d="M659.9,51.7l-3.5,1.8v-2.8l4.3-2.3h2.3v15.4h-3V51.7z"/>
	<path class="st4" d="M667.4,57.1c-0.7-0.7-1-1.5-1-2.6v-2.6c0-1.1,0.3-2,1-2.6c0.7-0.7,1.6-1,2.7-1h1.2c1.1,0,2,0.3,2.7,1
		c0.7,0.7,1,1.5,1,2.6v2.6c0,1.1-0.3,2-1,2.6c-0.7,0.7-1.6,1-2.7,1h-1.2C668.9,58.1,668.1,57.7,667.4,57.1z M671.2,55.7
		c0.3,0,0.6-0.1,0.7-0.4c0.2-0.3,0.3-0.6,0.3-1V52c0-0.4-0.1-0.8-0.3-1c-0.2-0.3-0.4-0.4-0.7-0.4h-1.1c-0.3,0-0.6,0.1-0.7,0.4
		c-0.2,0.3-0.3,0.6-0.3,1v2.2c0,0.4,0.1,0.8,0.3,1c0.2,0.3,0.4,0.4,0.7,0.4H671.2z M679.9,47.9h3.1l-8.7,16.4h-3.1L679.9,47.9z
		 M680.2,63c-0.7-0.7-1-1.5-1-2.6v-2.6c0-1.1,0.3-2,1-2.6c0.7-0.7,1.6-1,2.7-1h1.2c1.1,0,2,0.3,2.7,1c0.7,0.7,1,1.5,1,2.6v2.6
		c0,1.1-0.3,2-1,2.6c-0.7,0.7-1.6,1-2.7,1h-1.2C681.8,64,680.9,63.6,680.2,63z M684.1,61.6c0.3,0,0.6-0.1,0.7-0.4
		c0.2-0.3,0.3-0.6,0.3-1v-2.2c0-0.4-0.1-0.8-0.3-1c-0.2-0.3-0.4-0.4-0.7-0.4H683c-0.3,0-0.6,0.1-0.7,0.4c-0.2,0.3-0.3,0.6-0.3,1v2.2
		c0,0.4,0.1,0.8,0.3,1c0.2,0.3,0.4,0.4,0.7,0.4H684.1z"/>
</g>
<g>
	<path class="st4" d="M553.9,538.9c-0.9-0.5-1.5-1.2-2-2.1c-0.5-0.9-0.7-1.9-0.7-3.1v-4c0-1.2,0.2-2.2,0.7-3.1
		c0.5-0.9,1.2-1.6,2-2.1c0.9-0.5,1.9-0.7,3-0.7h2.3c1.1,0,2.1,0.2,2.9,0.7c0.8,0.5,1.5,1.1,1.9,2s0.7,1.8,0.7,2.9h-3
		c0-0.9-0.2-1.6-0.7-2.1c-0.5-0.5-1.1-0.8-1.8-0.8h-2.3c-0.8,0-1.5,0.3-2,0.9c-0.5,0.6-0.7,1.4-0.7,2.4v3.8c0,1,0.2,1.8,0.7,2.4
		c0.5,0.6,1.1,0.9,1.9,0.9h2.4c0.8,0,1.4-0.3,1.9-0.9c0.5-0.6,0.7-1.4,0.7-2.4h3c0,1.2-0.2,2.2-0.7,3.1c-0.5,0.9-1.1,1.6-2,2.1
		c-0.9,0.5-1.8,0.7-2.9,0.7h-2.4C555.7,539.6,554.7,539.4,553.9,538.9z"/>
	<path class="st4" d="M569.6,539.1c-0.7-0.4-1.3-0.9-1.7-1.5c-0.4-0.7-0.6-1.4-0.6-2.3v-2.6c0-0.9,0.2-1.6,0.6-2.3
		c0.4-0.7,0.9-1.2,1.7-1.6c0.7-0.4,1.5-0.5,2.5-0.5h2c0.9,0,1.7,0.2,2.5,0.5c0.7,0.4,1.3,0.9,1.7,1.6c0.4,0.7,0.6,1.4,0.6,2.3v2.6
		c0,0.9-0.2,1.6-0.6,2.3c-0.4,0.7-1,1.2-1.7,1.5c-0.7,0.4-1.5,0.5-2.5,0.5h-2C571.1,539.6,570.3,539.4,569.6,539.1z M574,537
		c0.5,0,1-0.2,1.3-0.6c0.3-0.4,0.5-0.9,0.5-1.5v-2.1c0-0.6-0.2-1.1-0.5-1.5c-0.3-0.4-0.7-0.6-1.3-0.6h-1.9c-0.5,0-1,0.2-1.3,0.6
		c-0.3,0.4-0.5,0.9-0.5,1.5v2.1c0,0.6,0.2,1.1,0.5,1.5c0.3,0.4,0.7,0.6,1.3,0.6H574z"/>
	<path class="st4" d="M597.2,529.4c0.7,0.7,1,1.7,1,2.8v7.2h-3v-7.2c0-0.4-0.1-0.7-0.3-1c-0.2-0.2-0.4-0.4-0.7-0.4h-0.9
		c-0.4,0-0.8,0.2-1.1,0.5c-0.3,0.3-0.5,0.7-0.6,1.2v6.9h-3v-7.2c0-0.4-0.1-0.7-0.3-1c-0.2-0.2-0.4-0.4-0.7-0.4h-0.9
		c-0.4,0-0.8,0.2-1.1,0.6c-0.3,0.4-0.5,0.9-0.6,1.5v6.5h-3v-11h2.8v1.3c0.3-0.4,0.6-0.8,1-1.1c0.4-0.3,0.8-0.4,1.3-0.4h1.2
		c0.5,0,1,0.1,1.4,0.4s0.8,0.7,1,1.2c0.3-0.5,0.7-0.9,1.2-1.2c0.4-0.3,0.9-0.4,1.4-0.4h1.2C595.6,528.3,596.5,528.6,597.2,529.4z"/>
	<path class="st4" d="M616.9,529.4c0.7,0.7,1,1.7,1,2.8v7.2h-3v-7.2c0-0.4-0.1-0.7-0.3-1c-0.2-0.2-0.4-0.4-0.7-0.4H613
		c-0.4,0-0.8,0.2-1.1,0.5c-0.3,0.3-0.5,0.7-0.6,1.2v6.9h-3v-7.2c0-0.4-0.1-0.7-0.3-1c-0.2-0.2-0.4-0.4-0.7-0.4h-0.9
		c-0.4,0-0.8,0.2-1.1,0.6c-0.3,0.4-0.5,0.9-0.6,1.5v6.5h-3v-11h2.8v1.3c0.3-0.4,0.6-0.8,1-1.1c0.4-0.3,0.8-0.4,1.3-0.4h1.2
		c0.5,0,1,0.1,1.4,0.4s0.8,0.7,1,1.2c0.3-0.5,0.7-0.9,1.2-1.2s0.9-0.4,1.4-0.4h1.2C615.3,528.3,616.2,528.6,616.9,529.4z"/>
	<path class="st4" d="M623.3,539.1c-0.7-0.3-1.3-0.8-1.7-1.5c-0.4-0.6-0.6-1.3-0.6-2.1v-2.8c0-0.9,0.2-1.6,0.6-2.3
		c0.4-0.7,0.9-1.2,1.7-1.5c0.7-0.4,1.5-0.5,2.5-0.5h1.8c1.4,0,2.5,0.4,3.4,1.2s1.3,1.8,1.3,3.2v2.3H624v0.5c0,0.5,0.2,0.9,0.5,1.2
		c0.3,0.3,0.7,0.4,1.3,0.4h1.7c0.5,0,0.9-0.1,1.2-0.3s0.5-0.5,0.5-0.9h2.9c0,0.7-0.2,1.4-0.6,2c-0.4,0.6-1,1-1.7,1.3
		c-0.7,0.3-1.5,0.5-2.5,0.5h-1.7C624.8,539.6,624,539.4,623.3,539.1z M629.2,532.8v-0.2c0-0.6-0.2-1-0.5-1.4
		c-0.3-0.3-0.7-0.5-1.2-0.5h-1.8c-0.5,0-1,0.2-1.3,0.5c-0.3,0.4-0.5,0.9-0.5,1.5v0.1H629.2z"/>
	<path class="st4" d="M635.3,528.5h2.8v1.4c0.3-0.4,0.7-0.8,1.2-1c0.5-0.3,1.1-0.4,1.6-0.4h1.5v2.6h-1.5c-0.8,0-1.4,0.2-1.9,0.7
		c-0.5,0.5-0.7,1.1-0.7,1.8v5.9h-3V528.5z"/>
	<path class="st4" d="M646.2,539.1c-0.7-0.4-1.3-0.9-1.6-1.5s-0.6-1.4-0.6-2.3v-2.6c0-0.9,0.2-1.6,0.6-2.3s0.9-1.2,1.6-1.5
		c0.7-0.4,1.5-0.5,2.4-0.5h1.7c0.9,0,1.7,0.2,2.3,0.5s1.2,0.8,1.6,1.5c0.4,0.6,0.5,1.4,0.5,2.2h-3c0-0.5-0.1-0.9-0.4-1.2
		c-0.3-0.3-0.6-0.5-1.1-0.5h-1.7c-0.5,0-0.9,0.2-1.2,0.6s-0.5,0.9-0.5,1.5v2.1c0,0.6,0.2,1.1,0.5,1.5s0.7,0.6,1.3,0.6h1.7
		c0.5,0,0.8-0.2,1.1-0.5s0.4-0.8,0.4-1.3h3c0,1.3-0.4,2.4-1.2,3.2c-0.8,0.8-1.9,1.2-3.3,1.2h-1.7
		C647.8,539.6,646.9,539.4,646.2,539.1z"/>
	<path class="st4" d="M659.7,539.1c-0.7-0.3-1.3-0.8-1.7-1.5c-0.4-0.6-0.6-1.3-0.6-2.1v-2.8c0-0.9,0.2-1.6,0.6-2.3
		c0.4-0.7,0.9-1.2,1.7-1.5c0.7-0.4,1.5-0.5,2.5-0.5h1.8c1.4,0,2.5,0.4,3.4,1.2s1.3,1.8,1.3,3.2v2.3h-8.1v0.5c0,0.5,0.2,0.9,0.5,1.2
		c0.3,0.3,0.7,0.4,1.3,0.4h1.7c0.5,0,0.9-0.1,1.2-0.3s0.5-0.5,0.5-0.9h2.9c0,0.7-0.2,1.4-0.6,2c-0.4,0.6-0.9,1-1.7,1.3
		c-0.7,0.3-1.5,0.5-2.5,0.5h-1.7C661.2,539.6,660.4,539.4,659.7,539.1z M665.6,532.8v-0.2c0-0.6-0.2-1-0.5-1.4
		c-0.3-0.3-0.7-0.5-1.2-0.5h-1.8c-0.5,0-1,0.2-1.3,0.5c-0.3,0.4-0.5,0.9-0.5,1.5v0.1H665.6z"/>
	<path class="st4" d="M678.6,537.2c0-0.9,0.2-1.6,0.5-2.3c0.3-0.6,0.9-1.2,1.6-1.7l5.5-3.3c0.3-0.1,0.5-0.4,0.6-0.6
		c0.2-0.3,0.2-0.5,0.2-0.8v-0.7c0-0.4-0.2-0.7-0.5-1c-0.3-0.2-0.7-0.4-1.2-0.4h-2c-0.6,0-1,0.2-1.3,0.6s-0.5,1-0.5,1.8h-3
		c0-1.6,0.4-2.8,1.3-3.7s2-1.3,3.5-1.3h2.1c0.9,0,1.7,0.2,2.4,0.5c0.7,0.3,1.3,0.8,1.6,1.4c0.4,0.6,0.6,1.3,0.6,2.1v0.7
		c0,0.8-0.2,1.5-0.5,2c-0.3,0.6-0.8,1.1-1.6,1.5l-5.3,3.1c-0.4,0.2-0.6,0.4-0.8,0.7c-0.2,0.2-0.3,0.6-0.3,0.9h8.5v2.6h-11.6V537.2z"
		/>
	<path class="st4" d="M695.7,527.3l-3.5,1.8v-2.8l4.3-2.3h2.3v15.4h-3V527.3z"/>
	<path class="st4" d="M703.2,532.7c-0.7-0.7-1-1.5-1-2.6v-2.6c0-1.1,0.3-2,1-2.6c0.7-0.7,1.6-1,2.7-1h1.2c1.1,0,2,0.3,2.7,1
		c0.7,0.7,1,1.5,1,2.6v2.6c0,1.1-0.3,2-1,2.6c-0.7,0.7-1.6,1-2.7,1h-1.2C704.7,533.7,703.9,533.4,703.2,532.7z M707,531.3
		c0.3,0,0.6-0.1,0.7-0.4c0.2-0.3,0.3-0.6,0.3-1v-2.2c0-0.4-0.1-0.8-0.3-1c-0.2-0.3-0.4-0.4-0.7-0.4h-1.1c-0.3,0-0.6,0.1-0.7,0.4
		c-0.2,0.3-0.3,0.6-0.3,1v2.2c0,0.4,0.1,0.8,0.3,1c0.2,0.3,0.4,0.4,0.7,0.4H707z M715.7,523.6h3.1l-8.7,16.4H707L715.7,523.6z
		 M716,538.6c-0.7-0.7-1-1.5-1-2.6v-2.6c0-1.1,0.3-2,1-2.6c0.7-0.7,1.6-1,2.7-1h1.2c1.1,0,2,0.3,2.7,1c0.7,0.7,1,1.5,1,2.6v2.6
		c0,1.1-0.3,2-1,2.6c-0.7,0.7-1.6,1-2.7,1h-1.2C717.6,539.6,716.7,539.3,716,538.6z M719.9,537.2c0.3,0,0.6-0.1,0.7-0.4
		c0.2-0.3,0.3-0.6,0.3-1v-2.2c0-0.4-0.1-0.8-0.3-1c-0.2-0.3-0.4-0.4-0.7-0.4h-1.1c-0.3,0-0.6,0.1-0.7,0.4c-0.2,0.3-0.3,0.6-0.3,1
		v2.2c0,0.4,0.1,0.8,0.3,1c0.2,0.3,0.4,0.4,0.7,0.4H719.9z"/>
</g>
<g>
	<path class="st4" d="M1.4,320.7c-0.9-0.9-1.4-2.2-1.4-3.8h3c0,0.8,0.2,1.4,0.6,1.8c0.4,0.4,0.9,0.6,1.6,0.6h2.4
		c0.6,0,1.2-0.1,1.6-0.4c0.4-0.3,0.6-0.6,0.6-1.1v-0.7c0-0.7-0.5-1.2-1.6-1.3l-4-0.7c-1.3-0.2-2.3-0.6-3-1.3c-0.7-0.6-1-1.4-1-2.4
		v-1.2c0-0.8,0.2-1.5,0.6-2.1c0.4-0.6,1-1.1,1.8-1.4s1.7-0.5,2.7-0.5h2.5c1,0,1.8,0.2,2.5,0.6s1.3,0.9,1.7,1.7s0.6,1.5,0.6,2.5h-3
		c0-0.6-0.2-1.1-0.5-1.5S8.3,309,7.7,309H5.2c-0.6,0-1.1,0.1-1.5,0.4c-0.4,0.3-0.6,0.6-0.6,1.1v0.6c0,0.7,0.5,1.2,1.5,1.4l4,0.7
		c1.3,0.2,2.4,0.6,3.1,1.2c0.7,0.6,1.1,1.4,1.1,2.3v1.5c0,0.8-0.2,1.5-0.6,2.1c-0.4,0.6-1,1.1-1.8,1.4c-0.8,0.3-1.7,0.5-2.7,0.5H5.1
		C3.5,322,2.3,321.6,1.4,320.7z"/>
	<path class="st4" d="M17.8,321.5c-0.7-0.3-1.3-0.8-1.7-1.5c-0.4-0.6-0.6-1.3-0.6-2.1v-2.8c0-0.9,0.2-1.6,0.6-2.3s0.9-1.2,1.7-1.5
		c0.7-0.4,1.5-0.5,2.5-0.5H22c1.4,0,2.5,0.4,3.4,1.2s1.3,1.8,1.3,3.2v2.3h-8.1v0.5c0,0.5,0.2,0.9,0.5,1.2s0.7,0.4,1.3,0.4H22
		c0.5,0,0.9-0.1,1.2-0.3s0.5-0.5,0.5-0.9h2.9c0,0.7-0.2,1.4-0.6,2c-0.4,0.6-0.9,1-1.7,1.3s-1.5,0.5-2.5,0.5h-1.7
		C19.3,322,18.5,321.9,17.8,321.5z M23.7,315.2v-0.2c0-0.6-0.2-1-0.5-1.4s-0.7-0.5-1.2-0.5h-1.8c-0.5,0-1,0.2-1.3,0.5
		c-0.3,0.4-0.5,0.9-0.5,1.5v0.1H23.7z"/>
	<path class="st4" d="M29.8,310.9h2.8v1.4c0.3-0.4,0.7-0.8,1.2-1c0.5-0.3,1.1-0.4,1.6-0.4h1.5v2.6h-1.5c-0.8,0-1.4,0.2-1.9,0.7
		c-0.5,0.5-0.7,1.1-0.7,1.8v5.9h-3V310.9z"/>
	<path class="st4" d="M43,321.5c-0.3-0.2-0.5-0.6-0.7-1.1l-3.8-9.5h3.1l2.6,7.5h0l2.6-7.5H50l-4.4,11H44
		C43.6,321.9,43.2,321.7,43,321.5z"/>
	<path class="st4" d="M52.8,309.3c-0.3-0.3-0.5-0.8-0.5-1.3s0.2-1,0.5-1.3c0.3-0.3,0.8-0.5,1.4-0.5c0.6,0,1,0.2,1.4,0.5
		c0.3,0.3,0.5,0.8,0.5,1.3s-0.2,1-0.5,1.3c-0.3,0.3-0.8,0.5-1.4,0.5C53.6,309.8,53.2,309.7,52.8,309.3z M52.7,310.9h3v11h-3V310.9z"
		/>
	<path class="st4" d="M61.5,321.5c-0.7-0.4-1.3-0.9-1.6-1.5s-0.6-1.4-0.6-2.3v-2.6c0-0.9,0.2-1.6,0.6-2.3s0.9-1.2,1.6-1.5
		c0.7-0.4,1.5-0.5,2.4-0.5h1.7c0.9,0,1.7,0.2,2.3,0.5s1.2,0.8,1.6,1.5c0.4,0.6,0.6,1.4,0.6,2.2h-3c0-0.5-0.1-0.9-0.4-1.2
		c-0.3-0.3-0.6-0.5-1.1-0.5H64c-0.5,0-0.9,0.2-1.2,0.6s-0.5,0.9-0.5,1.5v2.1c0,0.6,0.2,1.1,0.5,1.5c0.3,0.4,0.7,0.6,1.3,0.6h1.7
		c0.5,0,0.8-0.2,1.1-0.5s0.4-0.8,0.4-1.3h3c0,1.3-0.4,2.4-1.2,3.2c-0.8,0.8-1.9,1.2-3.3,1.2H64C63.1,322,62.3,321.8,61.5,321.5z"/>
	<path class="st4" d="M75,321.5c-0.7-0.3-1.3-0.8-1.7-1.5c-0.4-0.6-0.6-1.3-0.6-2.1v-2.8c0-0.9,0.2-1.6,0.6-2.3s0.9-1.2,1.7-1.5
		c0.7-0.4,1.5-0.5,2.5-0.5h1.8c1.4,0,2.5,0.4,3.4,1.2s1.3,1.8,1.3,3.2v2.3h-8.1v0.5c0,0.5,0.2,0.9,0.5,1.2s0.7,0.4,1.3,0.4h1.7
		c0.5,0,0.9-0.1,1.2-0.3s0.5-0.5,0.5-0.9h2.9c0,0.7-0.2,1.4-0.6,2c-0.4,0.6-0.9,1-1.7,1.3S80,322,79.1,322h-1.7
		C76.5,322,75.7,321.9,75,321.5z M80.9,315.2v-0.2c0-0.6-0.2-1-0.5-1.4s-0.7-0.5-1.2-0.5h-1.8c-0.5,0-1,0.2-1.3,0.5
		c-0.3,0.4-0.5,0.9-0.5,1.5v0.1H80.9z"/>
	<path class="st4" d="M87.7,321c-0.8-0.7-1.2-1.6-1.2-2.8h2.9c0,0.4,0.1,0.7,0.4,1c0.3,0.2,0.6,0.4,1.1,0.4h2c0.9,0,1.3-0.2,1.3-0.7
		v-0.4c0-0.1-0.1-0.3-0.2-0.4c-0.1-0.1-0.3-0.2-0.6-0.3l-3.8-0.7c-0.9-0.1-1.6-0.5-2.1-1c-0.5-0.5-0.8-1.1-0.8-1.7v-0.7
		c0-0.9,0.4-1.7,1.2-2.2c0.8-0.5,1.8-0.8,3.2-0.8h1.7c1.2,0,2.2,0.3,3,1c0.8,0.7,1.1,1.5,1.1,2.6h-2.9c0-0.3-0.1-0.6-0.3-0.8
		c-0.2-0.2-0.5-0.3-0.8-0.3h-1.7c-1,0-1.4,0.2-1.4,0.7v0.4c0,0.2,0.1,0.3,0.2,0.4c0.1,0.1,0.3,0.2,0.5,0.2l4,0.7
		c0.8,0.1,1.5,0.5,2,0.9c0.5,0.5,0.8,1,0.8,1.6v0.8c0,1-0.4,1.7-1.2,2.3c-0.8,0.6-1.8,0.8-3.1,0.8h-2C89.5,322,88.5,321.7,87.7,321z
		"/>
	<path class="st4" d="M114.7,318.9h-6.3c-0.6,0-1.1-0.1-1.4-0.4c-0.3-0.3-0.5-0.6-0.5-1.1v-0.6l8.2-10.3h3.1v9.8h1.9v2.7h-1.9v2.9
		h-3V318.9z M114.8,316.4v-6.1h0l-4.8,6.1H114.8z"/>
	<path class="st4" d="M125,309.8l-3.5,1.8v-2.8l4.3-2.3h2.3v15.4h-3V309.8z"/>
	<path class="st4" d="M132.5,315.1c-0.7-0.7-1-1.5-1-2.6v-2.6c0-1.1,0.3-2,1-2.6c0.7-0.7,1.6-1,2.7-1h1.2c1.1,0,2,0.3,2.7,1
		c0.7,0.7,1,1.5,1,2.6v2.6c0,1.1-0.3,2-1,2.6c-0.7,0.7-1.6,1-2.7,1h-1.2C134.1,316.1,133.2,315.8,132.5,315.1z M136.4,313.7
		c0.3,0,0.6-0.1,0.7-0.4c0.2-0.3,0.3-0.6,0.3-1v-2.2c0-0.4-0.1-0.8-0.3-1c-0.2-0.3-0.4-0.4-0.7-0.4h-1.1c-0.3,0-0.6,0.1-0.7,0.4
		c-0.2,0.3-0.3,0.6-0.3,1v2.2c0,0.4,0.1,0.8,0.3,1c0.2,0.3,0.4,0.4,0.7,0.4H136.4z M145,306h3.1l-8.7,16.4h-3.1L145,306z M145.3,321
		c-0.7-0.7-1-1.5-1-2.6v-2.6c0-1.1,0.3-2,1-2.6c0.7-0.7,1.6-1,2.7-1h1.2c1.1,0,2,0.3,2.7,1c0.7,0.7,1,1.5,1,2.6v2.6
		c0,1.1-0.3,2-1,2.6c-0.7,0.7-1.6,1-2.7,1H148C146.9,322,146,321.7,145.3,321z M149.2,319.6c0.3,0,0.6-0.1,0.7-0.4
		c0.2-0.3,0.3-0.6,0.3-1V316c0-0.4-0.1-0.8-0.3-1c-0.2-0.3-0.4-0.4-0.7-0.4h-1.1c-0.3,0-0.6,0.1-0.7,0.4c-0.2,0.3-0.3,0.6-0.3,1v2.2
		c0,0.4,0.1,0.8,0.3,1c0.2,0.3,0.4,0.4,0.7,0.4H149.2z"/>
</g>
<g>
	<path class="st4" d="M607.3,90.3c-0.4-0.4-0.6-0.9-0.6-1.5V75.4h11.7v2.6h-8.7v3.6h8.1v2.6h-8.1v3.9h8.7v2.6h-9.6
		C608.2,90.8,607.7,90.6,607.3,90.3z M613.3,70h3.3l-2.6,4h-2.9L613.3,70z"/>
	<path class="st4" d="M621.5,79.9h2.8v1.3c0.3-0.5,0.7-0.8,1.3-1.1c0.5-0.3,1-0.4,1.5-0.4h1.3c1.2,0,2.1,0.4,2.8,1.1
		c0.7,0.7,1.1,1.7,1.1,2.9v7.1h-3v-7c0-0.5-0.1-0.8-0.4-1.1c-0.2-0.3-0.6-0.4-0.9-0.4h-1.3c-0.5,0-1,0.2-1.4,0.6s-0.7,0.9-0.8,1.5
		v6.5h-3V79.9z"/>
	<path class="st4" d="M637.6,90.5c-0.7-0.3-1.3-0.8-1.7-1.5c-0.4-0.6-0.6-1.3-0.6-2.1v-2.8c0-0.9,0.2-1.6,0.6-2.3
		c0.4-0.7,0.9-1.2,1.7-1.5c0.7-0.4,1.5-0.5,2.5-0.5h1.8c1.4,0,2.5,0.4,3.4,1.2s1.3,1.8,1.3,3.2v2.3h-8.1v0.5c0,0.5,0.2,0.9,0.5,1.2
		c0.3,0.3,0.7,0.4,1.3,0.4h1.7c0.5,0,0.9-0.1,1.2-0.3s0.5-0.5,0.5-0.9h2.9c0,0.7-0.2,1.4-0.6,2c-0.4,0.6-1,1-1.7,1.3
		c-0.7,0.3-1.5,0.5-2.5,0.5h-1.7C639.2,91,638.3,90.8,637.6,90.5z M643.6,84.2V84c0-0.6-0.2-1-0.5-1.4c-0.3-0.3-0.7-0.5-1.2-0.5
		h-1.8c-0.5,0-1,0.2-1.3,0.5c-0.3,0.4-0.5,0.9-0.5,1.5v0.1H643.6z"/>
	<path class="st4" d="M649.6,79.9h2.8v1.4c0.3-0.4,0.7-0.8,1.2-1c0.5-0.3,1.1-0.4,1.6-0.4h1.5v2.6h-1.5c-0.8,0-1.4,0.2-1.9,0.7
		c-0.5,0.5-0.7,1.1-0.7,1.8v5.9h-3V79.9z"/>
	<path class="st4" d="M660.1,94.3c-0.8-0.7-1.2-1.5-1.3-2.6h2.9c0,0.3,0.2,0.6,0.4,0.8c0.2,0.2,0.5,0.3,0.9,0.3h2
		c0.5,0,0.8-0.2,1.1-0.6s0.4-0.9,0.4-1.5v-1c-0.3,0.3-0.6,0.6-1.1,0.8c-0.4,0.2-0.8,0.3-1.2,0.3h-1.5c-1.3,0-2.4-0.4-3.2-1.2
		c-0.8-0.8-1.2-1.8-1.2-3.1v-2.2c0-0.9,0.2-1.7,0.6-2.4c0.4-0.7,0.9-1.2,1.6-1.6c0.7-0.4,1.5-0.6,2.4-0.6h1.3c0.5,0,1,0.1,1.5,0.4
		c0.5,0.2,0.9,0.5,1.2,0.9v-1.1h2.8v10.9c0,0.9-0.2,1.7-0.6,2.4c-0.4,0.7-0.9,1.2-1.6,1.6c-0.7,0.4-1.5,0.6-2.4,0.6h-2
		C661.9,95.3,660.9,95,660.1,94.3z M664.5,88.2c0.6,0,1-0.2,1.4-0.7c0.4-0.5,0.6-1.1,0.7-1.8v-1.5c-0.1-0.6-0.3-1.1-0.6-1.4
		c-0.3-0.4-0.8-0.5-1.3-0.5h-1.5c-0.5,0-1,0.2-1.3,0.6c-0.3,0.4-0.5,0.9-0.5,1.6v1.8c0,0.6,0.2,1.1,0.5,1.5c0.3,0.4,0.7,0.5,1.2,0.5
		H664.5z"/>
	<path class="st4" d="M673.7,78.3c-0.3-0.3-0.5-0.8-0.5-1.3s0.2-1,0.5-1.3s0.8-0.5,1.4-0.5c0.6,0,1,0.2,1.4,0.5s0.5,0.8,0.5,1.3
		s-0.2,1-0.5,1.3s-0.8,0.5-1.4,0.5C674.5,78.8,674.1,78.7,673.7,78.3z M673.6,79.9h3v11h-3V79.9z"/>
	<path class="st4" d="M682.5,90.5c-0.7-0.3-1.3-0.8-1.7-1.5c-0.4-0.6-0.6-1.3-0.6-2.1v-2.8c0-0.9,0.2-1.6,0.6-2.3
		c0.4-0.7,0.9-1.2,1.7-1.5c0.7-0.4,1.5-0.5,2.5-0.5h1.8c1.4,0,2.5,0.4,3.4,1.2s1.3,1.8,1.3,3.2v2.3h-8.1v0.5c0,0.5,0.2,0.9,0.5,1.2
		c0.3,0.3,0.7,0.4,1.3,0.4h1.7c0.5,0,0.9-0.1,1.2-0.3s0.5-0.5,0.5-0.9h2.9c0,0.7-0.2,1.4-0.6,2c-0.4,0.6-1,1-1.7,1.3
		c-0.7,0.3-1.5,0.5-2.5,0.5h-1.7C684,91,683.2,90.8,682.5,90.5z M688.4,84.2V84c0-0.6-0.2-1-0.5-1.4c-0.3-0.3-0.7-0.5-1.2-0.5h-1.8
		c-0.5,0-1,0.2-1.3,0.5c-0.3,0.4-0.5,0.9-0.5,1.5v0.1H688.4z"/>
	<path class="st4" d="M704.6,78.7l-3.5,1.8v-2.8l4.3-2.3h2.3v15.4h-3V78.7z"/>
	<path class="st4" d="M712.1,84.1c-0.7-0.7-1-1.5-1-2.6v-2.6c0-1.1,0.3-2,1-2.6c0.7-0.7,1.6-1,2.7-1h1.2c1.1,0,2,0.3,2.7,1
		c0.7,0.7,1,1.5,1,2.6v2.6c0,1.1-0.3,2-1,2.6c-0.7,0.7-1.6,1-2.7,1h-1.2C713.6,85.1,712.7,84.8,712.1,84.1z M715.9,82.7
		c0.3,0,0.6-0.1,0.7-0.4c0.2-0.3,0.3-0.6,0.3-1v-2.2c0-0.4-0.1-0.8-0.3-1c-0.2-0.3-0.4-0.4-0.7-0.4h-1.1c-0.3,0-0.6,0.1-0.7,0.4
		c-0.2,0.3-0.3,0.6-0.3,1v2.2c0,0.4,0.1,0.8,0.3,1c0.2,0.3,0.4,0.4,0.7,0.4H715.9z M724.6,74.9h3.1L719,91.4h-3.1L724.6,74.9z
		 M724.9,90c-0.7-0.7-1-1.5-1-2.6v-2.6c0-1.1,0.3-2,1-2.6c0.7-0.7,1.6-1,2.7-1h1.2c1.1,0,2,0.3,2.7,1c0.7,0.7,1,1.5,1,2.6v2.6
		c0,1.1-0.3,2-1,2.6c-0.7,0.7-1.6,1-2.7,1h-1.2C726.5,91,725.6,90.7,724.9,90z M728.7,88.6c0.3,0,0.6-0.1,0.7-0.4
		c0.2-0.3,0.3-0.6,0.3-1V85c0-0.4-0.1-0.8-0.3-1c-0.2-0.3-0.4-0.4-0.7-0.4h-1.1c-0.3,0-0.6,0.1-0.7,0.4c-0.2,0.3-0.3,0.6-0.3,1v2.2
		c0,0.4,0.1,0.8,0.3,1c0.2,0.3,0.4,0.4,0.7,0.4H728.7z"/>
</g>
<g>
	<path class="st4" d="M623.4,104h3v15.4h-3V104z"/>
	<path class="st4" d="M639.5,115.8h-5.8l-1.4,3.6h-3.2l6-15.4h1.4c1,0,1.6,0.4,1.9,1.3l5.5,14.1h-3.2L639.5,115.8z M634.6,113.2h4.1
		l-2-5.5h0L634.6,113.2z"/>
	<path class="st4" d="M655.6,115.8h-5.8l-1.4,3.6h-3.2l6-15.4h1.4c1,0,1.6,0.4,1.9,1.3l5.5,14.1h-3.2L655.6,115.8z M650.6,113.2h4.1
		l-2-5.5h0L650.6,113.2z"/>
	<path class="st4" d="M672.7,107.3l-3.5,1.8v-2.8l4.3-2.3h2.3v15.4h-3V107.3z"/>
	<path class="st4" d="M680.1,112.7c-0.7-0.7-1-1.5-1-2.6v-2.6c0-1.1,0.3-2,1-2.6c0.7-0.7,1.6-1,2.7-1h1.2c1.1,0,2,0.3,2.7,1
		c0.7,0.7,1,1.5,1,2.6v2.6c0,1.1-0.3,2-1,2.6c-0.7,0.7-1.6,1-2.7,1h-1.2C681.7,113.7,680.8,113.3,680.1,112.7z M684,111.3
		c0.3,0,0.6-0.1,0.7-0.4c0.2-0.3,0.3-0.6,0.3-1v-2.2c0-0.4-0.1-0.8-0.3-1c-0.2-0.3-0.4-0.4-0.7-0.4h-1.1c-0.3,0-0.6,0.1-0.7,0.4
		c-0.2,0.3-0.3,0.6-0.3,1v2.2c0,0.4,0.1,0.8,0.3,1c0.2,0.3,0.4,0.4,0.7,0.4H684z M692.6,103.5h3.1l-8.7,16.4h-3.1L692.6,103.5z
		 M693,118.6c-0.7-0.7-1-1.5-1-2.6v-2.6c0-1.1,0.3-2,1-2.6c0.7-0.7,1.6-1,2.7-1h1.2c1.1,0,2,0.3,2.7,1c0.7,0.7,1,1.5,1,2.6v2.6
		c0,1.1-0.3,2-1,2.6c-0.7,0.7-1.6,1-2.7,1h-1.2C694.5,119.6,693.6,119.2,693,118.6z M696.8,117.2c0.3,0,0.6-0.1,0.7-0.4
		c0.2-0.3,0.3-0.6,0.3-1v-2.2c0-0.4-0.1-0.8-0.3-1c-0.2-0.3-0.4-0.4-0.7-0.4h-1.1c-0.3,0-0.6,0.1-0.7,0.4c-0.2,0.3-0.3,0.6-0.3,1
		v2.2c0,0.4,0.1,0.8,0.3,1c0.2,0.3,0.4,0.4,0.7,0.4H696.8z"/>
</g>
<g>
	<path class="st4" d="M665.7,150.5h-5.8l-1.4,3.6h-3.2l6-15.4h1.4c1,0,1.6,0.4,1.9,1.3l5.5,14.1H667L665.7,150.5z M660.8,147.9h4.1
		l-2-5.5h0L660.8,147.9z"/>
	<path class="st4" d="M673.4,153c-0.7-0.8-1.1-1.8-1.1-3.1v-6.9h3v6.9c0,0.5,0.1,0.9,0.4,1.2c0.2,0.3,0.6,0.5,1,0.5h1.3
		c0.5,0,0.9-0.2,1.3-0.6c0.4-0.4,0.7-0.9,0.8-1.6v-6.4h3v11h-2.8v-1.4c-0.3,0.5-0.8,0.9-1.2,1.1c-0.5,0.3-1,0.4-1.4,0.4h-1.5
		C675,154.2,674.1,153.8,673.4,153z"/>
	<path class="st4" d="M688.7,153.2c-0.6-0.6-0.9-1.5-0.9-2.7v-4.8h-1.9v-2.6h2v-3.3h2.9v3.3h2.9v2.6h-2.9v4.7c0,0.4,0.1,0.7,0.2,0.9
		c0.2,0.2,0.4,0.3,0.7,0.3h1.9v2.6h-2.1C690.2,154,689.3,153.8,688.7,153.2z"/>
	<path class="st4" d="M696.8,143.1h2.8v1.4c0.3-0.4,0.7-0.8,1.2-1c0.5-0.3,1.1-0.4,1.6-0.4h1.5v2.6h-1.5c-0.8,0-1.4,0.2-1.9,0.7
		c-0.5,0.5-0.7,1.1-0.7,1.8v5.9h-3V143.1z"/>
	<path class="st4" d="M707.8,153.7c-0.7-0.3-1.3-0.8-1.7-1.5c-0.4-0.6-0.6-1.3-0.6-2.1v-2.8c0-0.9,0.2-1.6,0.6-2.3
		c0.4-0.7,0.9-1.2,1.7-1.5c0.7-0.4,1.5-0.5,2.5-0.5h1.8c1.4,0,2.5,0.4,3.4,1.2s1.3,1.8,1.3,3.2v2.3h-8.1v0.5c0,0.5,0.2,0.9,0.5,1.2
		c0.3,0.3,0.7,0.4,1.3,0.4h1.7c0.5,0,0.9-0.1,1.2-0.3s0.5-0.5,0.5-0.9h2.9c0,0.7-0.2,1.4-0.6,2c-0.4,0.6-0.9,1-1.7,1.3
		c-0.7,0.3-1.5,0.5-2.5,0.5h-1.7C709.3,154.2,708.5,154,707.8,153.7z M713.7,147.4v-0.2c0-0.6-0.2-1-0.5-1.4
		c-0.3-0.3-0.7-0.5-1.2-0.5h-1.8c-0.5,0-1,0.2-1.3,0.5c-0.3,0.4-0.5,0.9-0.5,1.5v0.1H713.7z"/>
	<path class="st4" d="M720.5,153.2c-0.8-0.7-1.2-1.6-1.2-2.8h2.9c0,0.4,0.1,0.7,0.4,1c0.3,0.2,0.6,0.4,1.1,0.4h2
		c0.9,0,1.3-0.2,1.3-0.7v-0.4c0-0.1-0.1-0.3-0.2-0.4c-0.1-0.1-0.3-0.2-0.6-0.3l-3.8-0.7c-0.9-0.1-1.6-0.5-2.1-1
		c-0.5-0.5-0.8-1.1-0.8-1.7v-0.7c0-0.9,0.4-1.7,1.2-2.2c0.8-0.5,1.8-0.8,3.2-0.8h1.7c1.2,0,2.2,0.3,3,1c0.8,0.7,1.1,1.5,1.1,2.6
		h-2.9c0-0.3-0.1-0.6-0.3-0.8s-0.5-0.3-0.8-0.3h-1.7c-1,0-1.4,0.2-1.4,0.7v0.4c0,0.2,0.1,0.3,0.2,0.4c0.1,0.1,0.3,0.2,0.5,0.2l4,0.7
		c0.8,0.1,1.5,0.5,2,0.9s0.8,1,0.8,1.6v0.8c0,1-0.4,1.7-1.2,2.3c-0.8,0.6-1.8,0.8-3.1,0.8h-2C722.4,154.2,721.3,153.9,720.5,153.2z"
		/>
	<path class="st4" d="M657.1,161.5c-0.3-0.3-0.5-0.8-0.5-1.3s0.2-1,0.5-1.3s0.8-0.5,1.4-0.5c0.6,0,1,0.2,1.4,0.5s0.5,0.8,0.5,1.3
		s-0.2,1-0.5,1.3s-0.8,0.5-1.4,0.5C657.9,162,657.5,161.9,657.1,161.5z M657,163.1h3v11h-3V163.1z"/>
	<path class="st4" d="M664,163.1h2.8v1.3c0.3-0.5,0.7-0.8,1.3-1.1c0.5-0.3,1-0.4,1.5-0.4h1.3c1.2,0,2.1,0.4,2.8,1.1
		c0.7,0.7,1.1,1.7,1.1,2.9v7.1h-3v-7c0-0.5-0.1-0.8-0.4-1.1c-0.2-0.3-0.6-0.4-0.9-0.4h-1.3c-0.5,0-1,0.2-1.4,0.6s-0.7,0.9-0.8,1.5
		v6.5h-3V163.1z"/>
	<path class="st4" d="M679.1,173c-0.8-0.8-1.2-1.8-1.2-3.1v-2.5c0-0.9,0.2-1.7,0.6-2.4c0.4-0.7,0.9-1.2,1.6-1.6
		c0.7-0.4,1.5-0.6,2.4-0.6h1.2c0.4,0,0.9,0.1,1.3,0.3c0.4,0.2,0.8,0.4,1.1,0.7v-5.3h3V174h-2.8v-1.5c-0.3,0.5-0.7,0.9-1.2,1.2
		c-0.5,0.3-1,0.5-1.6,0.5h-1.3C680.9,174.2,679.9,173.8,679.1,173z M683.9,171.6c0.6,0,1.1-0.2,1.5-0.6c0.4-0.4,0.6-1,0.7-1.7v-1.9
		c-0.1-0.6-0.3-1-0.7-1.4c-0.3-0.3-0.8-0.5-1.2-0.5h-1.3c-0.6,0-1.1,0.2-1.4,0.6c-0.4,0.4-0.5,0.9-0.5,1.6v2.1
		c0,0.6,0.2,1.1,0.5,1.4s0.7,0.5,1.3,0.5H683.9z"/>
	<path class="st4" d="M693.6,173c-0.7-0.8-1.1-1.8-1.1-3.1v-6.9h3v6.9c0,0.5,0.1,0.9,0.4,1.2c0.2,0.3,0.6,0.5,1,0.5h1.3
		c0.5,0,0.9-0.2,1.3-0.6c0.4-0.4,0.7-0.9,0.8-1.6v-6.4h3v11h-2.8v-1.4c-0.3,0.5-0.8,0.9-1.2,1.1c-0.5,0.3-1,0.4-1.4,0.4h-1.5
		C695.3,174.2,694.3,173.8,693.6,173z"/>
	<path class="st4" d="M707.7,173.2c-0.8-0.7-1.2-1.6-1.2-2.8h2.9c0,0.4,0.1,0.7,0.4,1c0.3,0.2,0.6,0.4,1.1,0.4h2
		c0.9,0,1.3-0.2,1.3-0.7v-0.4c0-0.1-0.1-0.3-0.2-0.4s-0.3-0.2-0.6-0.3l-3.8-0.7c-0.9-0.1-1.6-0.5-2.1-1c-0.5-0.5-0.8-1.1-0.8-1.7
		v-0.7c0-0.9,0.4-1.7,1.2-2.2c0.8-0.5,1.8-0.8,3.2-0.8h1.7c1.2,0,2.2,0.3,3,1c0.8,0.7,1.1,1.5,1.1,2.6h-2.9c0-0.3-0.1-0.6-0.3-0.8
		c-0.2-0.2-0.5-0.3-0.8-0.3h-1.7c-1,0-1.4,0.2-1.4,0.7v0.4c0,0.2,0.1,0.3,0.2,0.4s0.3,0.2,0.5,0.2l4,0.7c0.8,0.1,1.5,0.5,2,0.9
		c0.5,0.5,0.8,1,0.8,1.6v0.8c0,1-0.4,1.7-1.2,2.3c-0.8,0.6-1.8,0.8-3.1,0.8h-2C709.5,174.2,708.5,173.9,707.7,173.2z"/>
	<path class="st4" d="M722,173.2c-0.6-0.6-0.9-1.5-0.9-2.7v-4.8h-1.9v-2.6h2v-3.3h2.9v3.3h2.9v2.6h-2.9v4.7c0,0.4,0.1,0.7,0.2,0.9
		s0.4,0.3,0.7,0.3h1.9v2.6h-2.1C723.5,174,722.6,173.8,722,173.2z"/>
	<path class="st4" d="M730.1,163.1h2.8v1.4c0.3-0.4,0.7-0.8,1.2-1c0.5-0.3,1.1-0.4,1.6-0.4h1.5v2.6h-1.5c-0.8,0-1.4,0.2-1.9,0.7
		c-0.5,0.5-0.7,1.1-0.7,1.8v5.9h-3V163.1z"/>
	<path class="st4" d="M740.2,161.5c-0.3-0.3-0.5-0.8-0.5-1.3s0.2-1,0.5-1.3c0.3-0.3,0.8-0.5,1.4-0.5s1,0.2,1.4,0.5
		c0.3,0.3,0.5,0.8,0.5,1.3s-0.2,1-0.5,1.3c-0.3,0.3-0.8,0.5-1.4,0.5S740.5,161.9,740.2,161.5z M740.1,163.1h3v11h-3V163.1z"/>
	<path class="st4" d="M748.9,173.7c-0.7-0.3-1.3-0.8-1.7-1.5c-0.4-0.6-0.6-1.3-0.6-2.1v-2.8c0-0.9,0.2-1.6,0.6-2.3
		c0.4-0.7,0.9-1.2,1.7-1.5c0.7-0.4,1.5-0.5,2.5-0.5h1.8c1.4,0,2.5,0.4,3.4,1.2s1.3,1.8,1.3,3.2v2.3h-8.1v0.5c0,0.5,0.2,0.9,0.5,1.2
		c0.3,0.3,0.7,0.4,1.3,0.4h1.7c0.5,0,0.9-0.1,1.2-0.3s0.5-0.5,0.5-0.9h2.9c0,0.7-0.2,1.4-0.6,2c-0.4,0.6-1,1-1.7,1.3
		c-0.7,0.3-1.5,0.5-2.5,0.5h-1.7C750.4,174.2,749.6,174,748.9,173.7z M754.8,167.4v-0.2c0-0.6-0.2-1-0.5-1.4
		c-0.3-0.3-0.7-0.5-1.2-0.5h-1.8c-0.5,0-1,0.2-1.3,0.5c-0.3,0.4-0.5,0.9-0.5,1.5v0.1H754.8z"/>
	<path class="st4" d="M761.6,173.2c-0.8-0.7-1.2-1.6-1.2-2.8h2.9c0,0.4,0.1,0.7,0.4,1c0.3,0.2,0.6,0.4,1.1,0.4h2
		c0.9,0,1.3-0.2,1.3-0.7v-0.4c0-0.1-0.1-0.3-0.2-0.4s-0.3-0.2-0.6-0.3l-3.8-0.7c-0.9-0.1-1.6-0.5-2.1-1c-0.5-0.5-0.8-1.1-0.8-1.7
		v-0.7c0-0.9,0.4-1.7,1.2-2.2c0.8-0.5,1.8-0.8,3.2-0.8h1.7c1.2,0,2.2,0.3,3,1c0.8,0.7,1.1,1.5,1.1,2.6h-2.9c0-0.3-0.1-0.6-0.3-0.8
		c-0.2-0.2-0.5-0.3-0.8-0.3H765c-1,0-1.4,0.2-1.4,0.7v0.4c0,0.2,0.1,0.3,0.2,0.4s0.3,0.2,0.5,0.2l4,0.7c0.8,0.1,1.5,0.5,2,0.9
		c0.5,0.5,0.8,1,0.8,1.6v0.8c0,1-0.4,1.7-1.2,2.3c-0.8,0.6-1.8,0.8-3.1,0.8h-2C763.5,174.2,762.4,173.9,761.6,173.2z"/>
	<path class="st4" d="M783.9,173.6c-0.8-0.4-1.4-1-1.9-1.8c-0.4-0.8-0.7-1.7-0.7-2.7v-5.4c0-1,0.2-1.9,0.7-2.7
		c0.4-0.8,1.1-1.4,1.9-1.8c0.8-0.4,1.7-0.6,2.8-0.6h1.9c0.9,0,1.7,0.2,2.5,0.6c0.7,0.4,1.3,0.9,1.7,1.6c0.4,0.7,0.6,1.5,0.6,2.4h-3
		c0-0.5-0.2-1-0.5-1.3c-0.3-0.3-0.7-0.5-1.2-0.5h-1.9c-0.7,0-1.2,0.2-1.7,0.7c-0.4,0.4-0.6,1-0.6,1.8v1.7c0.4-0.4,0.8-0.7,1.4-0.9
		c0.5-0.2,1.1-0.3,1.6-0.3h1.5c1,0,1.8,0.2,2.6,0.5c0.7,0.4,1.3,0.9,1.7,1.6c0.4,0.7,0.6,1.5,0.6,2.3v0.9c0,1-0.2,1.8-0.7,2.5
		s-1.1,1.3-1.9,1.7c-0.8,0.4-1.7,0.6-2.8,0.6h-1.6C785.6,174.2,784.7,174,783.9,173.6z M788.3,171.7c0.7,0,1.3-0.2,1.7-0.6
		s0.6-0.9,0.6-1.6v-0.9c0-0.6-0.2-1-0.5-1.4c-0.4-0.3-0.8-0.5-1.4-0.5h-1.5c-0.7,0-1.3,0.2-1.8,0.6c-0.5,0.4-0.9,0.9-1,1.6v0.7
		c0,0.6,0.2,1.1,0.6,1.5c0.4,0.4,1,0.6,1.7,0.6H788.3z"/>
	<path class="st4" d="M797.1,167.3c-0.7-0.7-1-1.5-1-2.6v-2.6c0-1.1,0.3-2,1-2.6c0.7-0.7,1.6-1,2.7-1h1.2c1.1,0,2,0.3,2.7,1
		c0.7,0.7,1,1.5,1,2.6v2.6c0,1.1-0.3,2-1,2.6c-0.7,0.7-1.6,1-2.7,1h-1.2C798.7,168.3,797.8,168,797.1,167.3z M801,165.9
		c0.3,0,0.6-0.1,0.7-0.4c0.2-0.3,0.3-0.6,0.3-1v-2.2c0-0.4-0.1-0.8-0.3-1c-0.2-0.3-0.4-0.4-0.7-0.4h-1.1c-0.3,0-0.6,0.1-0.7,0.4
		c-0.2,0.3-0.3,0.6-0.3,1v2.2c0,0.4,0.1,0.8,0.3,1c0.2,0.3,0.4,0.4,0.7,0.4H801z M809.6,158.2h3.1l-8.7,16.4h-3.1L809.6,158.2z
		 M810,173.2c-0.7-0.7-1-1.5-1-2.6V168c0-1.1,0.3-2,1-2.6c0.7-0.7,1.6-1,2.7-1h1.2c1.1,0,2,0.3,2.7,1c0.7,0.7,1,1.5,1,2.6v2.6
		c0,1.1-0.3,2-1,2.6c-0.7,0.7-1.6,1-2.7,1h-1.2C811.5,174.2,810.6,173.9,810,173.2z M813.8,171.8c0.3,0,0.6-0.1,0.7-0.4
		c0.2-0.3,0.3-0.6,0.3-1v-2.2c0-0.4-0.1-0.8-0.3-1c-0.2-0.3-0.4-0.4-0.7-0.4h-1.1c-0.3,0-0.6,0.1-0.7,0.4c-0.2,0.3-0.3,0.6-0.3,1
		v2.2c0,0.4,0.1,0.8,0.3,1c0.2,0.3,0.4,0.4,0.7,0.4H813.8z"/>
</g>
<g>
	<path class="st4" d="M700.4,320c-0.9-0.5-1.5-1.2-2-2.1c-0.5-0.9-0.7-1.9-0.7-3.1v-4c0-1.2,0.2-2.2,0.7-3.1c0.5-0.9,1.2-1.6,2-2.1
		s1.9-0.7,3-0.7h2.3c1.1,0,2.1,0.2,2.9,0.7c0.8,0.5,1.5,1.1,1.9,2s0.7,1.8,0.7,2.9h-3c0-0.9-0.2-1.6-0.7-2.1
		c-0.5-0.5-1.1-0.8-1.8-0.8h-2.3c-0.8,0-1.5,0.3-2,0.9c-0.5,0.6-0.7,1.4-0.7,2.4v3.8c0,1,0.2,1.8,0.7,2.4c0.5,0.6,1.1,0.9,1.9,0.9
		h2.4c0.8,0,1.4-0.3,1.9-0.9c0.5-0.6,0.7-1.4,0.7-2.4h3c0,1.2-0.2,2.2-0.7,3.1c-0.5,0.9-1.1,1.6-2,2.1c-0.9,0.5-1.8,0.7-2.9,0.7
		h-2.4C702.3,320.7,701.3,320.5,700.4,320z"/>
	<path class="st4" d="M716.1,320.2c-0.7-0.4-1.3-0.9-1.6-1.5c-0.4-0.7-0.6-1.4-0.6-2.3v-2.6c0-0.9,0.2-1.6,0.6-2.3
		c0.4-0.7,0.9-1.2,1.7-1.6c0.7-0.4,1.5-0.5,2.5-0.5h2c0.9,0,1.7,0.2,2.5,0.5c0.7,0.4,1.3,0.9,1.7,1.6c0.4,0.7,0.6,1.4,0.6,2.3v2.6
		c0,0.9-0.2,1.6-0.6,2.3c-0.4,0.7-1,1.2-1.7,1.5s-1.5,0.5-2.5,0.5h-2C717.6,320.7,716.8,320.5,716.1,320.2z M720.5,318.1
		c0.5,0,1-0.2,1.3-0.6c0.3-0.4,0.5-0.9,0.5-1.5V314c0-0.6-0.2-1.1-0.5-1.5c-0.3-0.4-0.7-0.6-1.3-0.6h-1.9c-0.5,0-1,0.2-1.3,0.6
		s-0.5,0.9-0.5,1.5v2.1c0,0.6,0.2,1.1,0.5,1.5s0.7,0.6,1.3,0.6H720.5z"/>
	<path class="st4" d="M728.5,309.6h2.8v1.3c0.3-0.5,0.7-0.8,1.3-1.1c0.5-0.3,1-0.4,1.5-0.4h1.3c1.2,0,2.1,0.4,2.8,1.1
		c0.7,0.7,1.1,1.7,1.1,2.9v7.1h-3v-7c0-0.5-0.1-0.8-0.4-1.1c-0.2-0.3-0.6-0.4-0.9-0.4h-1.3c-0.5,0-1,0.2-1.4,0.6s-0.7,0.9-0.8,1.5
		v6.5h-3V309.6z"/>
	<path class="st4" d="M743.5,319.7c-0.8-0.7-1.2-1.6-1.2-2.8h2.9c0,0.4,0.1,0.7,0.4,1c0.3,0.2,0.6,0.4,1.1,0.4h2
		c0.9,0,1.3-0.2,1.3-0.7v-0.4c0-0.1-0.1-0.3-0.2-0.4s-0.3-0.2-0.6-0.3l-3.8-0.7c-0.9-0.1-1.6-0.5-2.1-1c-0.5-0.5-0.8-1.1-0.8-1.7
		v-0.7c0-0.9,0.4-1.7,1.2-2.2c0.8-0.5,1.8-0.8,3.2-0.8h1.7c1.2,0,2.2,0.3,3,1c0.8,0.7,1.1,1.5,1.1,2.6h-2.9c0-0.3-0.1-0.6-0.3-0.8
		c-0.2-0.2-0.5-0.3-0.8-0.3h-1.7c-1,0-1.4,0.2-1.4,0.7v0.4c0,0.2,0.1,0.3,0.2,0.4s0.3,0.2,0.5,0.2l4,0.7c0.8,0.1,1.5,0.5,2,0.9
		c0.5,0.5,0.8,1,0.8,1.6v0.8c0,1-0.4,1.7-1.2,2.3c-0.8,0.6-1.8,0.8-3.1,0.8h-2C745.4,320.7,744.3,320.4,743.5,319.7z"/>
	<path class="st4" d="M757.8,319.7c-0.6-0.6-0.9-1.5-0.9-2.7v-4.8H755v-2.6h2v-3.3h2.9v3.3h2.9v2.6h-2.9v4.7c0,0.4,0.1,0.7,0.2,0.9
		s0.4,0.3,0.7,0.3h1.9v2.6h-2.1C759.3,320.5,758.4,320.3,757.8,319.7z"/>
	<path class="st4" d="M766,309.6h2.8v1.4c0.3-0.4,0.7-0.8,1.2-1c0.5-0.3,1.1-0.4,1.6-0.4h1.5v2.6h-1.5c-0.8,0-1.4,0.2-1.9,0.7
		c-0.5,0.5-0.7,1.1-0.7,1.8v5.9h-3V309.6z"/>
	<path class="st4" d="M776.4,319.5c-0.7-0.8-1.1-1.8-1.1-3.1v-6.9h3v6.9c0,0.5,0.1,0.9,0.4,1.2c0.2,0.3,0.6,0.5,1,0.5h1.3
		c0.5,0,0.9-0.2,1.3-0.6s0.7-0.9,0.8-1.6v-6.4h3v11h-2.8v-1.4c-0.3,0.5-0.8,0.9-1.2,1.1c-0.5,0.3-1,0.4-1.4,0.4h-1.5
		C778,320.7,777.1,320.3,776.4,319.5z"/>
	<path class="st4" d="M791.5,320.2c-0.7-0.4-1.3-0.9-1.6-1.5s-0.6-1.4-0.6-2.3v-2.6c0-0.9,0.2-1.6,0.6-2.3s0.9-1.2,1.6-1.5
		c0.7-0.4,1.5-0.5,2.4-0.5h1.7c0.9,0,1.7,0.2,2.3,0.5s1.2,0.8,1.6,1.5c0.4,0.6,0.5,1.4,0.5,2.2h-3c0-0.5-0.1-0.9-0.4-1.2
		c-0.3-0.3-0.6-0.5-1.1-0.5H794c-0.5,0-0.9,0.2-1.2,0.6s-0.5,0.9-0.5,1.5v2.1c0,0.6,0.2,1.1,0.5,1.5s0.7,0.6,1.3,0.6h1.7
		c0.5,0,0.8-0.2,1.1-0.5s0.4-0.8,0.4-1.3h3c0,1.3-0.4,2.4-1.2,3.2c-0.8,0.8-1.9,1.2-3.3,1.2H794
		C793.1,320.7,792.2,320.5,791.5,320.2z"/>
	<path class="st4" d="M805,319.7c-0.6-0.6-0.9-1.5-0.9-2.7v-4.8h-1.9v-2.6h2v-3.3h2.9v3.3h2.9v2.6h-2.9v4.7c0,0.4,0.1,0.7,0.2,0.9
		c0.2,0.2,0.4,0.3,0.7,0.3h1.9v2.6h-2.1C806.6,320.5,805.6,320.3,805,319.7z"/>
	<path class="st4" d="M813.7,308c-0.3-0.3-0.5-0.8-0.5-1.3s0.2-1,0.5-1.3c0.3-0.3,0.8-0.5,1.4-0.5s1,0.2,1.4,0.5
		c0.3,0.3,0.5,0.8,0.5,1.3s-0.2,1-0.5,1.3c-0.3,0.3-0.8,0.5-1.4,0.5S814.1,308.4,813.7,308z M813.6,309.6h3v11h-3V309.6z"/>
	<path class="st4" d="M822.4,320.2c-0.7-0.4-1.3-0.9-1.7-1.5c-0.4-0.7-0.6-1.4-0.6-2.3v-2.6c0-0.9,0.2-1.6,0.6-2.3
		c0.4-0.7,0.9-1.2,1.7-1.6c0.7-0.4,1.5-0.5,2.5-0.5h2c0.9,0,1.7,0.2,2.5,0.5c0.7,0.4,1.3,0.9,1.7,1.6c0.4,0.7,0.6,1.4,0.6,2.3v2.6
		c0,0.9-0.2,1.6-0.6,2.3c-0.4,0.7-1,1.2-1.7,1.5c-0.7,0.4-1.5,0.5-2.5,0.5h-2C824,320.7,823.1,320.5,822.4,320.2z M826.8,318.1
		c0.5,0,1-0.2,1.3-0.6c0.3-0.4,0.5-0.9,0.5-1.5V314c0-0.6-0.2-1.1-0.5-1.5c-0.3-0.4-0.7-0.6-1.3-0.6h-1.9c-0.5,0-1,0.2-1.3,0.6
		c-0.3,0.4-0.5,0.9-0.5,1.5v2.1c0,0.6,0.2,1.1,0.5,1.5c0.3,0.4,0.7,0.6,1.3,0.6H826.8z"/>
	<path class="st4" d="M834.8,309.6h2.8v1.3c0.3-0.5,0.7-0.8,1.3-1.1c0.5-0.3,1-0.4,1.5-0.4h1.3c1.2,0,2.1,0.4,2.8,1.1
		c0.7,0.7,1.1,1.7,1.1,2.9v7.1h-3v-7c0-0.5-0.1-0.8-0.4-1.1c-0.2-0.3-0.6-0.4-0.9-0.4H840c-0.5,0-1,0.2-1.4,0.6s-0.7,0.9-0.8,1.5
		v6.5h-3V309.6z"/>
	<path class="st4" d="M700.8,329.4l-3.5,1.8v-2.8l4.3-2.3h2.3v15.4h-3V329.4z"/>
	<path class="st4" d="M714.8,338.6h-6.3c-0.6,0-1.1-0.1-1.4-0.4c-0.3-0.3-0.5-0.6-0.5-1.1v-0.6l8.2-10.3h3.1v9.8h1.9v2.7h-1.9v2.9
		h-3V338.6z M714.9,336V330h0L710,336H714.9z"/>
	<path class="st4" d="M723,334.8c-0.7-0.7-1-1.5-1-2.6v-2.6c0-1.1,0.3-2,1-2.6c0.7-0.7,1.6-1,2.7-1h1.2c1.1,0,2,0.3,2.7,1
		c0.7,0.7,1,1.5,1,2.6v2.6c0,1.1-0.3,2-1,2.6c-0.7,0.7-1.6,1-2.7,1h-1.2C724.6,335.8,723.7,335.5,723,334.8z M726.8,333.4
		c0.3,0,0.6-0.1,0.7-0.4c0.2-0.3,0.3-0.6,0.3-1v-2.2c0-0.4-0.1-0.8-0.3-1c-0.2-0.3-0.4-0.4-0.7-0.4h-1.1c-0.3,0-0.6,0.1-0.7,0.4
		c-0.2,0.3-0.3,0.6-0.3,1v2.2c0,0.4,0.1,0.8,0.3,1c0.2,0.3,0.4,0.4,0.7,0.4H726.8z M735.5,325.7h3.1l-8.7,16.4h-3.1L735.5,325.7z
		 M735.8,340.7c-0.7-0.7-1-1.5-1-2.6v-2.6c0-1.1,0.3-2,1-2.6c0.7-0.7,1.6-1,2.7-1h1.2c1.1,0,2,0.3,2.7,1c0.7,0.7,1,1.5,1,2.6v2.6
		c0,1.1-0.3,2-1,2.6c-0.7,0.7-1.6,1-2.7,1h-1.2C737.4,341.7,736.5,341.4,735.8,340.7z M739.7,339.3c0.3,0,0.6-0.1,0.7-0.4
		c0.2-0.3,0.3-0.6,0.3-1v-2.2c0-0.4-0.1-0.8-0.3-1c-0.2-0.3-0.4-0.4-0.7-0.4h-1.1c-0.3,0-0.6,0.1-0.7,0.4c-0.2,0.3-0.3,0.6-0.3,1
		v2.2c0,0.4,0.1,0.8,0.3,1c0.2,0.3,0.4,0.4,0.7,0.4H739.7z"/>
</g>
</svg>
