<?xml version="1.0" encoding="utf-8"?>
<!-- Generator: Adobe Illustrator 19.1.0, SVG Export Plug-In . SVG Version: 6.00 Build 0)  -->
<svg version="1.1" id="Object" xmlns="http://www.w3.org/2000/svg" xmlns:xlink="http://www.w3.org/1999/xlink" x="0px" y="0px"
	 viewBox="0 0 173.3 207.6" style="enable-background:new 0 0 173.3 207.6;" xml:space="preserve">
<style type="text/css">
	.st0{fill:#FFFFFF;}
</style>
<path d="M0.1,181.2c-0.2,0.2,0,1.2,0.3,2.7c0.1,0.3,2.2,1.8,2.2,1.8l10.4,21.7c0,0,11.8-3.6,26.7-5c14.3-1.4,21.8,4,38.4,5.1
	c18.4,1.2,24.7-5.7,41.6-5.9c17.5-0.3,24.3,4.5,30.4,4.5c8.4,0,17.9-2.4,18.9-2.8l4.4-13.5C173.3,189.7,1,180.1,0.1,181.2z"/>
<path d="M62.1,187.4c-0.1-0.1-0.2-0.2-0.2-0.4c-0.1-6.6-1.7-155.1-0.1-167.1c0.1-0.4,0.4-0.6,0.4,0c1.7,12.1,2,159.5,2.2,167.2
	c0,0.2-0.1,0.4-0.2,0.5C63.8,187.8,63,188.2,62.1,187.4z"/>
<path class="st0" d="M65.5,166.4c0,0-1-116.9-1.1-118.5C64.2,46.3,127.2,1.5,130.1,0c3-1.5,38.5,164.1,37.5,165.2
	C166.7,166.3,69.2,166.1,65.5,166.4z"/>
<path class="st0" d="M6.5,173.9c0,0,46.2-138.3,55-144.9c0,0-11.1,133-6.3,148C55.3,177,16,178.3,6.5,173.9z"/>
</svg>
