<?xml version="1.0" encoding="utf-8"?>
<!-- Generator: Adobe Illustrator 19.1.0, SVG Export Plug-In . SVG Version: 6.00 Build 0)  -->
<svg version="1.1" id="Object" xmlns="http://www.w3.org/2000/svg" xmlns:xlink="http://www.w3.org/1999/xlink" x="0px" y="0px"
	 viewBox="0 0 197.8 201.6" style="enable-background:new 0 0 197.8 201.6;" xml:space="preserve">
<style type="text/css">
	.st0{fill:#F5F5F5;}
	.st1{fill:#FFFFFF;}
</style>
<path class="st0" d="M91.8,46.9c-5.1-18,2.1-36.6,16.6-46.8c-4.7-0.3-9.4,0.2-14.1,1.6c-22.8,6.5-36,30.1-29.5,52.9
	c6.5,22.8,30.1,36,52.9,29.5c4.7-1.3,9-3.4,12.9-6.1C112.8,76.9,96.9,64.9,91.8,46.9z"/>
<rect x="14.9" y="121.6" class="st1" width="162.9" height="37"/>
<path d="M197.2,170.9c0,2.6-2.1,4.6-4.6,4.6H4.7c-2.6,0-4.6-2.1-4.6-4.6v-17.2c0-2.6,2.1-4.6,4.6-4.6h187.8c2.6,0,4.6,2.1,4.6,4.6
	V170.9z"/>
<path d="M14.9,196.6c0,2.8-1.7,5-3.9,5H3.9c-2.2,0-3.9-2.2-3.9-5V89.8c0-2.7,1.7-5,3.9-5h7.1c2.2,0,3.9,2.2,3.9,5V196.6z"/>
<path d="M197.8,196.6c0,2.8-1.7,5-3.9,5h-7.1c-2.2,0-3.9-2.2-3.9-5v-68.7c0-2.7,1.7-5,3.9-5h7.1c2.2,0,3.9,2.2,3.9,5V196.6z"/>
<path class="st1" d="M46.3,119.9c0,3.7-2.3,6.7-5.2,6.7h-21c-2.8,0-5.2-3-5.2-6.7v-5.7c0-3.7,2.3-6.7,5.2-6.7h21
	c2.9,0,5.2,3,5.2,6.7V119.9z"/>
<path d="M194.6,161.7c0,5.3-2.3,9.6-5.1,9.6H8.8c-2.8,0-5.1-4.3-5.1-9.6l0,0c0-5.3,2.3-9.6,5.1-9.6h180.7
	C192.3,152.1,194.6,156.4,194.6,161.7L194.6,161.7z"/>
<path class="st1" d="M197.8,156.4c0,5-4.6,9.1-10.3,9.1h-122c-5.7,0-10.3-4.1-10.3-9.1v-33c0-5,4.6-9.1,10.3-9.1h122
	c5.7,0,10.3,4.1,10.3,9.1V156.4z"/>
<path class="st1" d="M194.6,125.4c0,3.3-2.7,5.9-6.1,5.9H64.7c-3.3,0-6.1-2.6-6.1-5.9v-2.5c0-3.3,2.7-5.9,6.1-5.9h123.8
	c3.4,0,6.1,2.6,6.1,5.9V125.4z"/>
</svg>
