<?xml version="1.0" encoding="utf-8"?>
<!-- Generator: Adobe Illustrator 19.1.0, SVG Export Plug-In . SVG Version: 6.00 Build 0)  -->
<svg version="1.1" id="Calque_1" xmlns="http://www.w3.org/2000/svg" xmlns:xlink="http://www.w3.org/1999/xlink" x="0px" y="0px"
	 viewBox="-5592.6 -6258.3 9701.4 4497.4" style="enable-background:new -5592.6 -6258.3 9701.4 4497.4;" xml:space="preserve">
<style type="text/css">
	.st0{fill:none;enable-background:new    ;}
	.st1{opacity:0.3;}
	.st2{fill:#FFFFFF;}
</style>
<path class="st0" d="z"/>
<g>
	<g class="st1">
		<path class="st2" d="M2979.3-2299.6h216.6c0,56.6-7.5,107.8-22.5,153.5c-15,45.8-37.2,89.3-66.7,130.4
			c-29.3,41-71.5,75.8-126.5,104.5l82.4,149.9c68.2-34.9,126.6-76.4,175-124.7c67-66.9,116.9-140.2,149.9-219.9
			c32.9-79.7,49.4-195.7,49.4-348V-2707h-457.4V-2299.6z"/>
		<path class="st2" d="M3651.4-2707v407.4H3868c0,56.6-7.5,107.8-22.5,153.5c-15,45.8-37.5,89.3-67.6,130.4
			c-30,41.2-72.1,76.1-126.4,104.9l82.3,149.8c68.6-35,127.2-76.6,175.7-125.1c67-66.9,116.9-140.2,149.9-219.9
			c32.9-79.7,49.4-195.7,49.4-348V-2707H3651.4z"/>
	</g>
	<g class="st1">
		<path class="st2" d="M-1958.8-4525.3h-696.7c0-182.1,24.1-346.7,72.4-494c48.2-147.3,119.8-287.2,214.6-419.5
			c94.3-131.8,230-243.8,407-336.1l-264.9-482.1c-219.6,112.2-407.3,245.8-562.9,401.2c-215.5,215.1-376.2,450.9-482.1,707.4
			c-105.9,256.4-158.8,629.6-158.8,1119.5v814.2h1471.3V-4525.3z"/>
		<path class="st2" d="M-4121.2-3214.7v-1310.6h-696.7c0-182.1,24.1-346.7,72.5-494c48.2-147.3,120.7-287.2,217.4-419.5
			c96.5-132.4,232.1-244.9,406.7-337.5l-264.9-482c-220.6,112.4-409.2,246.5-565.4,402.5c-215.5,215.1-376.2,450.9-482.1,707.4
			c-105.9,256.4-158.8,629.6-158.8,1119.5v814.2H-4121.2z"/>
	</g>
</g>
</svg>
